<?xml version="1.0" encoding="UTF-8"?>
<svg id="Layer_1" xmlns="http://www.w3.org/2000/svg" viewBox="0 0 2400.01 1680">
    <defs>
        <style>
            .cls-1 {
                stroke: #dc2626;
                stroke-width: 10px;
            }

            .cls-1 {
                fill: none;
                stroke-miterlimit: 2.61;
            }
        </style>
    </defs>
    <path class="cls-1"
        d="m2397.61,1154.04c-88.77-.85-177.54-1.7-266.31-2.55-25.25-.24-57.93-10.41-22.73-10.41h84.91c14.08,0-31.64-147.32-47.54-197.14-22.1-69.23-38.52,199.31-77.21,225.56-16.69,11.53-39.89,11.33-60.34,11.92-9.41.27-9.44-.97-3.11,5.66l56.71,59.41c13.38,14.02-251.84,9.33-307.7,9.36-6.08,0-4.49.5-8.53-4.22l-59.11-69.07c-5.35-7.83,246.28-2.05,301.23-1.26,9.39.14,6.9-5.91-.23-6.29-98.05-5.2-195.93-3.71-294.04-3.71-23.38,3.57-33.61,6.63-54.96-1.13-17.17-6.24-80.66,8.25-41.42-62.92,0,0,11.45-30.86,58.95-7.11,0,0,19.75,10.67,34.69,11.48,6.45.35,4.23-.39,4.53,9.15.32,9.89.82,25.34,1.17,33.9.42,10.23,7.67,12.07,6.82-.44-.65-9.66-2.07-28.48-2.79-38.12-.2-2.58,151.64-21.95,164.5-24.29,39.57-7.19,81.51-14.98,100.06-18.95,24.14-5.17,22.48-88.19,19.98-107.06,0,0-17.36-94.69,29.78-129.8,84.16-62.69,124.4,100.56,119.19,69.35-1.37-8.2-22.17-123.31-136.2-135.05-30.1-3.1-49.18,85.63-54.48,123.39-4.38,31.24-52.9-1.8-41.18-16.4,12.99-16.18,51.83-69.29,53.02-127.39,0,0,14.77-17.28,8.29-31.67-18.55-25.33,18.98-63.04-33.47-87.62-25.44-11.92-2.42-45.76-59.72-37.24,0,0-61.88-12.24-96.42,29.51-15.04,10.2-70.97,62.38-34.9,77,0,0,19.09,4.95,30.73,3.97,11.08-.93,16.3,26.54,32.26,8.98,0,0,11.87-12.6,11.87-4.68s-3.24,33.46,4.68,33.1c7.07-.32,18.74.8,21.66,10.79,2.33,7.98,17.92,2.61,25.33,8.11,8.21,6.1-1.52,11.8,8.3,12,3.5.08,7.83-1.14,8.26-7.49.72-10.8,27.86-20.17,27.86-2.18,4.21,1.32,8.07,1.95,11.61,1.95,61.46-.03,24.24-186.22-76.87-158.27-29.25,8.09-61.89,32.9-84.82,63.05-58.88,77.44-28.92,261.74,83.46,188.68,4.1-2.66,75.38-54.6,48.63-28.84-7.58,7.3-39.28,30.34-56.73,43.1-22.2,16.23,15.89,27.72,32.16,28.44,7.37.33,4.47-2.55,5.04,6.48,2.44,38.51,29.78,111.07,38.24,163.77,0,0-3.6,3.6-7.2,0-7.24-7.25-27.65-105.96-41.06-147.71-6.65-20.71-55.5-27.32-75.76-28.4-24.15-1.29-1.1,114.97,10.44,155.46,6.34,22.26-7.26,13.02-9.86,6.6-6.49-16.03,2.87-51.66-13.29,8.63-3.6,10.8,28.54,18.33,49.4,20.66,65.42,7.3-132.99,21.55-174.36,2.61-28.5-13.05,98.24-241.35,63.06-200.31-20.6,24.04-54.79,128.02-57.25,130.77-.6.68-1.05-.51-1.05-.51m0,0s-19.48-56.1-26.49-72.78c-6.17-14.69-73.61,5.52-72.8,18.91.97,16.15,30.05,63.21,35.48,95.58,4.23,25.2,33.62,1.81,32.88,16.57-.24,4.77-38.71.53-69.25.06-11.93-.18-22.65.21-29.41,1.94-25,6.39-134.62-33.27-169.06-22.51,0,0-74.12,11.51-74.48,20.51-.36,9,52.17-14.03,53.97-7.91,1.8,6.12-21.23,11.51-21.59,17.27-.36,5.76,22.31-11.15,22.31-6.84s-18.72,14.29-17.64,16.45c1.08,2.16,22.68-8.53,21.6-3.49-1.08,5.04-19.81,11.63-16.21,17.39,3.4,5.45,56.34-3.05,69.41-14.94,6.84-6.21,39.07-.13,48.72,7.63,11.05,8.89,97.37,38.28,115.05,42.81,37.17-12.33,50.97-63.37,1.83-65.46-12.52-.53-10.4-125.05-9.34-167.59.75-30.23,89.79-9.55,73.72-32.51m0,0s-19.17-50-113.63-78.5c-14.08-4.24-70.74,143.32-153.21,73.84-50.23-42.31-11.52-97.36-15.26-71.99-1.8,12.23,1.44,49.65,14.03,58.29,0,0,45.01,40.75,83.48,11.88,7.44-8.07,69.75-74.94,54.75-78.56-10.35-2.5-40.42-10.23-50.89-18.29-9.69-7.45,16.08-50.42,13.77-71.2-25.63-41.89-52.65-22-87.08-44.62-125.44-101.68,158.88-138.02,134.59-5.48-12.78,69.75-105.79,200.27,10.14,111.63,20.77-12.81,4.92-143.54-4.76-163.37-37.41-54.68-108.23-82.25-160.48-29.51-22.24,22.57-58.55,119.97-46.78,142.13l5.69,3.68c7.62,10.94.66-61.82,16.26-70.6,3.14-1.77,5.05,1.08,3.24,6.84-45.65,144.51,68.25,118.27,93.85,110.73,7.24-2.13,4.81.92,3.84,4.77-1.01,4.02-121.88,21.38-135.95,21.6-52.47.81-59.61,10.92-80.4,51.28-9.09,17.64-19.41,41.93-13.77,52.34,0,0,23.75,15.12,37.42,17.28l35.68,5.89c6.98.97,5.17-22.4,3.13-36.76-6.15-43.31-7.34,37.44-7.33,37.68.79,44.88,3.46,110.12,8.1,139.01,1.31,8.19,4.18,9.02-1.94,8.72-8.62-.42-37.77-2.55-54.04-5.04-12.67-1.95-11.23-.75-12.36-12.22-2.41-24.52-6.74-89.14-3.16-91.53,3.81-2.54,9.39,93.13,10.66,115.82.86,15.4,53.51-15.19,57.24.34,2.9,12.07-5.26,10.5,4.82,9.43,33.14-3.52,41.94.24,48.43,38.07,0,0,3.6,17.63-1.44,17.27-5.04-.36-14.14-50.59-21.59-46.06-7.44,4.53,17.44,44.61,11.52,46.06-5.92,1.45-21.95-43.18-24.83-39.22-2.88,3.96,16.91,37.78,12.59,38.86-4.32,1.08-23.39-32.39-27.35-32.03-3.96.36,14.03,28.79,10.79,29.87s-11.16,5.09-27.71-33.46c0,0-6.1-3.21-5.76,2.16s10.38,13.63,6.84,15.83c-6.71,4.17-18.99-1.38-9.94,6.42,16.63,14.34,89.78,72.48,116.8,93.91,8.07,6.4,7.19,9.28,14.81,5.85l159.47-71.59c3.75-1.68,4.94-2.28,4.08-2.93-7.87-5.95-106.63-45.54-134.21-54.68-15.02-4.97-8.4,1.47,2.16,5.92l107.62,45.34c10.54,4.26,11.24,2.65.27,7.67l-133.27,61.28c-12.22,5.62-101.03-67.41-126.07-87-3.42-2.67-66.68,1.91-53.73,12.03l27.15,21.22c10.94,8.55,15.85,8.22.36,9.9l-252.78,27.34c-10.7,1.16-36.62-27.2-50.92-42.4-11.67-12.4,1.65-11.71,6.99-6.06l34.65,36.73c1.17,1.24,2.64,2.41,3.56,3.71.39.56,209.06-20.5,247.61-24.37,9.06-.91-14.88-18.73-25.9-27.31-5.55-4.32-4.93-2.46-.15-6.2,12.82-10.03,47.19-45.79-35.32-94.32-86.71-51-61.02,34.11-53.53,57.7,5.37,16.91-51.46,13.63-63.06,14.27-20.41-1.78-.43-212.7-11.33-210.88-8.43,1.41-55.27,76.19-149.21,90.46-14.66,2.22-7.33-10.55-6.96-10.58,3.83-.35,52.09,12.77,146.41-81.43,2.31-2.31,25.7-150.6,49.28-212.58,32.47-85.32-15.6,100.78-14.34,116.25,0,0,26.95,234.66,33.82,236.05,6.66,1.35.4-37.85,69.01-28.37,16.07,2.22-5.67-220.89-7.84-245.11,0,0,17.27-130.26-5.76-169.12,0,0-30.22-51.82-69.09-76.28m0,0c-9.64-5.75-9.19-8.53-9.39.03-1.24,53.23-38.63,115.84-75.55,121.84-38.09,6.19-78.62-76.79-78.08-108.48.11-6.5,1.75-3.13-4.35-4.53-5.75-1.32-13.95-6.92-7.51-29.19,0,0-13.67-37.42.72-28.78,14.39,8.63,15.83,39.58,15.83,39.58,0,0-4.32,12.95,11.52,9.35,15.83-3.6,1.44-17.27,6.48-18.71,5.04-1.44,5.76-1.8,6.84-8.64,1.08-6.84-5.76-25.55,3.24-30.23,9-4.68,24.11-6.48,26.27,2.16,2.16,8.64-.36,20.87,4.32,20.15,4.68-.72,12.95.36,12.95.36,0,0,6.12-10.79,12.24-.36,0,0,7.91,12.59,15.83,6.12,0,0,10.8-20.87,18.71-9.71,0,0,14.39,21.23,21.95,10.43,0,0,17.27-24.47,17.27-13.31s8.64,26.99,11.51,16.55c2.88-10.43,3.24-28.07-3.96-62.61,1.91-31.21-1.67-28.51-19.37-45.16-24.78-23.31-40.89-53-85.7-35.44-14.03,7.3-43.82,13.17-57.65,27.73-10.63,11.2-1.47,11.6-14.28,25.3-24.4,26.09-16.37,150.76-8.77,172.93-.16-.07,18.56,64.57,42.07,89.61,9.24,9.85,27.41-7.4,37.18-12.95,0,0,5.4,1.44,2.88,5.04-2,2.86-23.27,13.19-31.95,17.34-14.48,6.9-42.73-56.12-45.05-66.99,0,0-14.76-25.91-18.35-73.4.07-7.18,2.96-74.53.72-74.85m0,0c-82.09-10.37-151.06,18.81-161.15,108.66-7.92,70.53,3.59,146.8,2.88,159.04,0,0-5.04,95.71,3.59,118.74,0,0,19.8,76.29,29.15,95.71,0,0,42.67,109.17,47.6,139.2,2.39,14.6,46.8-.71,65.47-6.67,11.44-3.65,14.07,4.54,9.99,7.09-5.76,3.6-64.54,12.63-56.49,18.71,6.81,5.14,27.01,21.16,33.07,30.76,10.46,16.58,85.75,9.55,108.34,9.54,0,0,7.92-6.12.72-6.12s-24.65-3.06-24.11-5.21c.54-2.16,2.34-8.64,4.32-8.1,1.98.54,37.24,17.81,59.37,10.61,4.52-7.38-1.09-5.82-7.47-6.72-16.25-2.3-50.93-8.01-50.65-11.27.36-4.14-1.17-5.01,1.62-4.68,2.79.33,56.28,13.24,56.85,11.69.57-1.55,3.42-5.76-.36-5.93-3.15-.15-34.52-4.8-44.48-7.28-5.49-1.36-3.44-5.98-.32-5.86,3.23.13,27.62,5.37,40.45,6.7,11.46,1.2,8.95-2.73,1.12-7.13-7.75-4.37-24.35-9.46-60.64-12.88,0,0-38.09-5.12-52-11.25-12.69-5.6-38.7-171.53-47.31-192.05,0,0-14.39-112.98,0-231.73,0,0,12.01-126.98-41.48-149.43-72.64-30.49-79.94,77.33-85.89,146.23-7.53,87.35-49.82,170.95-42.69,262.8,1.74,22.28,50.22,46.92,68.93,52.73,0,0,5.76-11.15,2.52-11.52-2.31-.25-30.54-14.75-46.58-23.07-29.82-15.46,17.01,182.31,13.84,183.55m0,0s-41.16,17.23-42.96,9.68c-14.54-61.08.11-197.27-21.6-246.12-5.75-12.96-48.22-47.86-52.18-45.34-3.95,2.52,18.04,30.64,26.69,109.81l14.88,89.71c4.39,26.46-7.96,7.01-7.6.96.72-12.23-9.51-109.8-47.65-211.28-6.44-8.91-29.92-33.37-26.51-43.51l11.8-35.11c2.93-8.74-11.8-14.42-19.89-18.78-4.83-2.59-1.65-9.52,2.93-7.32,111.34,53.37,125.11-98.96,99.19-147.7-110.14-206.99-141.74-5.17-107.42,53.42,14.52,24.79,28.03,2.85,28.03-5.76,0,0-2.51-24.11,16.91-24.11,0,0,9.01-5.4,5.76-14.75,0,0,.82-6.79,7.93-8.86,22.12-6.44,9.53-61.49,53.25-16.69,0,0,18.4,26.97,12.64,44.82-5.76,17.85,11.12,30.82,3.91,39.02-7.22,8.2-5.04,34.9-2.52,33.46,2.52-1.44,21.94,18.71,23.38-4.32,1.44-23.03,19.43-12.23,6.84-42.1-22.01-27.15,24.3-81.82-60.45-117.3,0,0-43.19-44.96-74.32-37.8-31.01,7.14-41.18-27.65-84.73,9.02,0,0-32.01,12.59-44.98,44.62-57.11,20.4-20.94,54.18-61.38,77.92-22.05,12.94-22.5,40.47-20.29,64.57,9.53,64.34,85.21,209.86,111.54,112.27,6.96-25.75-5.75-36.7,24.48-66.21,23.37-22.81,16.01-52.23,18.4-75.69,7.71-75.66,51.56,22.09,25.49,53.38-27.25,32.7-13.88,35.52-25.9,59.23-13.07,25.74,25.69,18.42,38.74,23.2,7.04,2.57,7.65,31.43,6.96,37.4-1.44,12.23,19.06,44.98,19.06,44.98l73.65,251.38c2.72,9.29,3.32,18.16-4.6,4.01-20.01-35.72-60.78-201.91-67.69-225.18-6.52-21.92-8.53,28.32-15.83,48.86-3.95,11.09-15.39.19-24.27-8.61-17.5-17.4,18.75,65.44,34.94,116.51,15.13,47.71,1.67,94.23,1.98,68.1.23-18.41-2.24-65.36-28.42-120.5-8.92-28.52-54.51-186.66-86.32-177.36-5.12,1.5-10.2,4.07-8.68,8.24,2.55,7.04,71.23,132.05,86.32,159.5,3.73,6.8,1.34,25.33-11.53-1.92-14.56-30.8-61.19-114.74-77.23-143.47-15.1-27.04-15.64,25.95-40.03-6.93-14.92-72.73-84.6-96.37-92.07-45.4-5.7,38.9-26.48,189.28-15.19,245.45,10.87,54.15,90.32,24.21,117.55,10.17,12.87-6.64-.44-119.69-4.31-170.13-2-26.05-9.95-25.51-8.17-16,2.15,11.51,2.15,208.7,17.98,215.89,13.23,6.01,75.22,41.68,104.05,50.72,19.32,6.06,13.25-3.88-7.56,19.49-11.98,13.47-25.82,35.06-30.78,66.18-2.15,13.36,8.4,11.26,8.78,9.7,1.03-4.11,3.7-74.4,56.7-91.09,18.4-5.79,6.3,12.64,28.95,12.64,0,0,83.83-7.92,97.5-.72l24.89,15.38c9.86,6.41,11.43-9.93,14.18-22.84,2.75-13,48.6-16.85,67.61-29.76,25.56-17.34,68.88,35.71,82.4,53.75,11.03,14.71-9.25,7.05-10.95,2.18-2.52-7.19-14.03-21.59-16.55-20.87-2.52.72,16.91,26.63,9.72,28.07-7.2,1.44-34.18-62.25-38.86-56.86-4.68,5.4,19.07,52.18,12.59,56.49-6.48,4.32-32.74-51.81-42.1-47.86-9.36,3.96,29.87,30.95,20.15,36.7-9.72,5.76-27.71-27.35-35.62-18.71-7.93,8.64,33.46,21.95,22.67,27.71-1.57.84-101.2-18.33-67.53,5.8,5.88,4.21,19.17,14.39,14.64,17.23-5.76,3.59-66.21-45.7-75.56-35.27-9.35,10.44,81.33,39.22,75.56,47.86-5.76,8.63-100.39-50.02-109.75-38.5-9.35,11.52,95.72,29.51,88.88,44.26-6.83,14.75-89.6-37.42-97.14-28.79-7.56,8.63,59.73,22.31,50.37,29.87-8.76,7.09-70.7-12.73-97.37-9.28-12.1,1.56-23.86-21.64-30.36-13.75-5.04,6.12-25.9,41.38-47.5,43.18-14.65,1.22-43.59-12.33-60.65-21.15-18.52-9.57-13.74-9.27-19.31,14.11-1.7,7.17-1.67,5.44-9.09,7.15l-107.1,28.35c-18.6,1.94,159.67,37.55,213.71,52.25,10.28,2.8,7.66,4.06,17.18-.58l156.6-76.23c10.49-5.12,9.2-3.37,20.63-2.3,19.42,1.83,230.7,20.39,230.6,21.46-.08.8-2.89,2.68-9.65,7.09l-107.55,70.07c-18.8,12.24-197.88-18.29-248.03-25.52-6.61-.95-5.58-1.55-11.49,1.4l-25.97,13c-7.63,3.81-6.35,5.09-14.62,3.06l-238.48-58.44c-30.75-7.54,92.23-33.96,119.28-40.59,6.19-1.52,7.97-12.17,9.17-20.83,2.57-18.5-46.83-21.94-68.92-31.45-22.05-9.5-18.55,16.36-23.99,51.81-1.62,10.65.6,12.41-9.01,12.3l-300.52-3.52" />
</svg>