<?xml version="1.0" encoding="UTF-8"?><svg id="Layer_1" xmlns="http://www.w3.org/2000/svg" viewBox="0 0 550 450"><defs><style>.cls-1{fill:#ebebeb;}.cls-2{fill:#999;}.cls-3{fill:#cdcdcd;}</style></defs><path class="cls-2" d="m550,167.94c-8.68-.69-17.39-4.76-24.65-9.28-10.83-6.73-15.28-18.95-25.85-26.07-9.25-6.23-22.67-7.88-32.96-2.62-11.17,5.72-10.7,20.41-16.8,29.91-4.75,7.4-13.24,12.17-22.1,11.77-14.49-.66-25.94-8.78-36.2-18.15-9.64-8.8-24.75-17.81-38.22-17.81-23.78,0-55.06,5.69-69.93,25.91-10.8,14.68-17.2,34.51-30.71,47.09-10.17,9.47-22.04,11.74-35.03,14.78-6.7,1.57-14.88,2.08-21.69,1.17-7.09-.94-14.9-4.32-22.08-2.26-7.23,2.07-12.72,7.35-19.45,10.44-9.14,4.2-19.51,10.53-26.68,17.16-9.48,8.77-53.22,42.4-66.31,51.28-11.08,7.51-19.24,18.16-30.74,25.62-9.73,6.31-20.5,13.89-30.61,20.68v19.34c.5-.31,1.01-.61,1.51-.92,9.8-6.16,132.24-111.68,153.81-125.86,13.92-9.15,32.77-11.14,47.78-3.07,6.06,3.26,11.91,8.04,17.24,12.19,11.17,8.68,27.07,24.55,42.37,17.94,15.25-6.59,20.34-29.95,26.48-43.55,9.51-21.04,18.78-42.35,31.56-61.68,8.18-12.37,28.05-19.73,42.34-16.52,15.21,3.42,26.39,16.24,40.08,22.89,14.83,7.2,40.58,16.93,51.19-2.34,3.34-6.08,5.02-12.57,8.65-18.6,10.04-16.68,35.09-15.97,45.42.82,3.85,6.27,5.22,10.65,11.68,15.41,5.47,4.03,11.73,6.9,17.56,10.37,3.28,1.95,7.83,3.84,12.34,5.91v-11.96Zm-222.26-17.68c-6.56,5.14-11.34,13.64-16.55,20.14-3.64,4.55-7.07,9.2-9.27,14.78-6.64,16.81-13.95,33.37-22.43,49.34-4.94,9.31-12.67,30.91-26.22,27.83-4.22-.96-10.14-2.83-14.07-4.49-5.44-2.31-32.37-20.53-18.79-25.49,8.46-3.08,15.48-3.66,23.18-8.61,6.5-4.18,11.68-9.2,16.44-15.29,6.23-7.97,12.64-16.81,17.87-25.37,5.43-8.9,9.38-18.82,17.26-25.98,9.59-8.71,30.69-16.06,43.42-15.52-.04,4.1-8.09,6.51-10.84,8.66Z"/><path class="cls-3" d="m158.93,121.3l8.91-6.3,5.25,7.36-8.65,5.89,1.13,1.65,9.49-6.46c.22-.15.37-.39.42-.65.05-.26-.01-.54-.17-.76l-5.84-8.19,6.31-4.46,14,23.46,1.72-1.03-14.08-23.59,3.82-2.7,11.46,15.55,1.61-1.19-11.43-15.51,8.34-5.9-1.15-1.63-13.67,9.66-7.46-12.49-1.72,1.03,7.54,12.63-16.98,12,1.15,1.63Z"/><path class="cls-3" d="m156.49,84.14l-16,9.53,1.02,1.72,5.4-3.21,5.34,6.15c.2.23.47.34.76.34.17,0,.34-.04.5-.13l8.24-4.78,2.44,3.58,1.65-1.12-8-11.78c-.3-.44-.88-.57-1.34-.3Zm-3.27,12.25l-4.56-5.25,8.05-4.79,3.91,5.76-7.4,4.29Z"/><polygon class="cls-3" points="68.49 129.23 70.15 118.5 77.22 111.2 75.78 109.8 57.78 128.39 59.22 129.78 67.74 120.98 66.51 128.93 68.49 129.23"/><path class="cls-3" d="m21.45,67.57c.14.03.27.04.41.04,3.05,0,5.61-7.4,6.6-10.69l-1.92-.58c-1.65,5.5-3.87,9.28-4.58,9.28-.01,0-.03,0-.04,0-1.7-.68-12.03-12.54-21.93-24.53v3.14c7.87,9.5,19.23,22.83,21.45,23.32Z"/><path class="cls-3" d="m45.46,60.34l-14.66,45.06c-.11.34-.03.71.21.98l6.55,7.31-4.19,14.13,1.92.57,4.34-14.67c.1-.33.02-.69-.21-.95l-6.54-7.3,14.48-44.52-1.9-.62Z"/><path class="cls-3" d="m0,328.32l16.82-9.45c.45-.26.64-.82.42-1.29l-4.42-9.55,50.28-38.58,2.97,6.21-24.81,16.55,1.11,1.66,24.57-16.39,2.7,5.63,1.8-.87-2.82-5.88,8.54-5.7-1.11-1.66-8.3,5.54-2.87-5.99,40.4-11.58-.55-1.92-4.45,1.28-5.01-19.8,8.64-6.21c.4-.29.53-.83.31-1.27l-3.76-7.33c-.22-.43-.71-.64-1.17-.5l-7.36,2.12-1.26-4.97,16.87-3.58c.07-.02.15-.04.22-.07l5.01-2.35,5.08,10.02-4.49,2.06.83,1.82,4.56-2.09,3.96,7.8c.18.35.53.55.89.55.15,0,.3-.03.45-.11l4.25-2.13,3.75,6.49,1.73-1-3.69-6.39,19.9-9.97c.47-.24.68-.79.48-1.28l-4.14-9.99c-.11-.26-.32-.46-.58-.56-.26-.1-.56-.08-.8.05l-5.7,2.97-3.54-9,12.6-5.91,5.4,10.76,1.79-.9-1.59-3.16,10.74-6.29-1.01-1.73-10.63,6.23-10-19.94,21.53,8.62,13.54,9.64-9.19,17.27,1.77.94,9.25-17.36,9.41,2.23-5.65,11.83,1.8.86,8.16-17.09,10.06,1.78s-.03.09-.04.12c-.04.11-.06.24-.05.36l.8,22.47c-1,.11-1.69.12-1.99.01-3.04-1.27-20.89-3.29-22.92-3.51-.11-.01-.22,0-.33.02l-9.61,2.11c-.09.02-.18.05-.26.1l-6.36,3.42.95,1.76,6.24-3.35,9.31-2.04c5.55.62,19.88,2.38,22.21,3.35,3.08,1.29,26.82-5.01,34.02-6.97l-.52-1.93c-5.25,1.43-10.7,2.82-15.62,3.99l-1.95-6.28,2.36-10.75.18.03.35-1.97-.1-.02.9-4.09-1.95-.43-.92,4.18-12.04-2.13c1.62-4.71,3.66-10.42,4.16-11.31l-1.74-.99c-.69,1.21-3.17,8.31-4.42,11.95l-9.82-1.73,8.4-17.59-1.8-.86-10.93,22.88-9.57-2.26,4.86-17.44,9.1-12.61-1.62-1.17-9.2,12.75c-.07.1-.12.2-.15.32l-4.81,17.24-13.19-9.4c-.06-.05-.13-.08-.21-.11l-23.73-9.5-2.91-5.8,30.74-14.16,7.1,8.43,1.53-1.29-7.59-9.02c-.29-.34-.78-.45-1.18-.26l-31.49,14.51-2.52-5.03-1.79.9,2.52,5.02-38.69,20.28-12.86,2.49-1.9-7.49-1.94.49,1.86,7.35-21.33,3.26.3,1.98,21.52-3.29,5.2,20.51-40.47,8.59,1.21-.39-1.23-3.86,12.65-1.68c.54-.07.92-.56.86-1.1l-1.65-14.57,2.7-.87-.61-1.9-3.44,1.11-11.24,2.68-1.41-3.23c-.19-.43-.64-.67-1.1-.58l-6.73,1.26-.88-7.42c0-.07-.02-.14-.05-.21l-5.44-15.62,26.96-10.3s.07-.03.11-.05l9.82-5.18,1.21,16.3-9.54,1.22.25,1.98,20.94-2.67c.17-.02.32-.08.46-.18l9.4-6.81h8.56c.16,0,.32-.04.47-.11l8.83-4.64,3.22,6.99,1.82-.84-3.26-7.09,13.86-7.28,3.34,5.92,1.74-.98-3.31-5.86,16.5-8.67v.02s1.84-.81,1.84-.81l-.06-.14,9.59-5.04,3.33,7.32,1.82-.83-17.35-38.09c-.02-.05-.05-.1-.08-.15l-9.27-13.61,3.85-4.24-1.48-1.34-3.69,4.07-20.06-19.03-1.38,1.45,5.28,5.01-12.35,12.85-7.4-6.53-1.32,1.5,7.34,6.47-7.23,7.52-7.65-7.77-1.42,1.4,7.69,7.8-6.12,6.36,1.44,1.39,6.08-6.32,18.13,18.4,1.42-1.4-3.98-4.04,9.17-3.73c.38-.15.62-.52.62-.93v-4.51l11.68-12.86,8.95,13.14,8.09,17.77-17.84,8.86-6.33-14.61-1.84.79,6.38,14.7-16.06,7.98.89,1.79,4.68-2.32,5.4,9.55-13.71,7.2-9.51-20.66c-.12-.25-.33-.45-.6-.53-.26-.09-.55-.06-.8.07l-7.21,3.98v-7.18l17.36-12.6-1.17-1.62-17.78,12.9c-.26.19-.41.49-.41.81v8.79l-6.63,3.66-8.97,4.73-1.6-2.42,4.73-4.54c.17-.16.28-.38.3-.61.04-.38.97-9.31-3.2-12.19-3.52-2.43-11.31-1.16-13.78-.68l-1.19-1.79c-.1-.15-.23-.26-.38-.34l-5-2.52-.9,1.79,4.76,2.4,14.47,21.84-14.72,7.76-26.84,10.26-5.03-14.42c-.05-.13-.12-.26-.22-.36l-19.29-20.23,2.8-6.45,22.25,20.67,1.36-1.46-22.77-21.15,4.25-9.78-1.83-.8-8.16,18.78c-.16.37-.08.8.19,1.09l19.59,20.55,4.98,14.28-18.27,6.98-2.73-2.68-1.4,1.43,3.19,3.13c.19.19.44.29.7.29.12,0,.24-.02.36-.07l18.82-7.19,5.39,15.46,2.71,22.82-25.01,17.26,1.14,1.65,8.6-5.94,10.48,21.96h-13.76l.6-.54-1.33-1.5-1.89,1.68-13.87-13.14c1.22-1.26,3.65-3.88,4.9-5.93,1.56-2.57-.44-14.16-1.27-18.51,1-.03,1.84-.12,2.28-.28l-.68-1.88c-.74.27-4.39.21-7.81,0v2c1.06.06,2.64.14,4.17.17,1.47,7.63,2.46,16.04,1.6,17.45-1.14,1.87-3.49,4.4-4.65,5.59l-1.12-1.06v2.76l14.95,14.16-14.95,13.26v2.67l16.81-14.91h16.97l3.62,7.58-35.12,22.74-2.03-4.38,23.69-21.67-1.35-1.48L0,278.41v6.71l15.04,32.46-15.04,8.45v2.29Zm217.93-126.44l-2.4,10.93c-.04.17-.03.35.02.51l1.99,6.4c-4.49,1.04-8.41,1.86-11.17,2.31l-.79-22.08c.03-.08.05-.16.08-.23l12.27,2.17Zm-101.39-115.16l13.36,12.67-11.47,12.63-14.19-12.51,12.3-12.79Zm-8.35,34.71l-12.67-12.86,7.33-7.62,14.65,12.92v3.77l-9.31,3.78Zm26.6,31.25l-3.66-10.09,6.55-3.25,4.26,9.59-7.14,3.75Zm18.49-9.72l-9.57,5.03-4.24-9.55,9.58-4.76,4.23,9.28Zm-33.39,5.2l9.44-4.69,3.68,10.14-7.74,4.07-5.37-9.52Zm-46.73-8.12c2.52,1.74,2.59,7.48,2.38,9.97l-4.2,4.03-9.62-14.51c3.29-.56,9.08-1.12,11.44.51Zm7.46,38.31l-9.16,1.17-1.26-16.9-.36.03,8.51-4.48,4.77,18.39-2.5,1.81Zm3.36-23.16l14.92-8.23,9.1,19.78-8.7,4.57h-8.64c-.21,0-.42.07-.59.19l-5.23,3.78-4.69-18.09,3.82-2.01ZM11.96,306.17l-4.08-8.81,42.09-31.44,10.2-2.58,2.05,4.27-50.26,38.56Zm52.05-39.46l-6.54-13.65,38.05-7.39,2.83,11.19-34.34,9.85Zm15.53-24.9l-2.25-12.21,13.2-3.79,3.27,12.9-14.22,3.1Zm19.51-18.46l2.99,5.83-7.31,5.25-2.32-9.17,6.63-1.91Zm12.83-37.18l14.92-7.82,3.43,7.93-13.41,6.45-4.93-6.56Zm1.29,5.04l-7.49,3.86-1.2-5.02,5.61-2.94,3.08,4.1Zm-3.06,3.83l5.02,8.57-6.52,3.66-2.44-10.19,3.95-2.04Zm-1.02,14.25l7.9-4.43c.23-.13.41-.35.48-.61.07-.26.03-.54-.1-.77l-5.48-9.36,2.5-1.29,1.32,1.76c.19.26.49.4.8.4.15,0,.29-.03.43-.1l14.08-6.77,4.83,11.18-26.21,12.29-.55-2.3Zm25.11-18.84l4.64-2.36,4.27,7.8-5.46,2.56-3.46-8Zm3.25,21.06l-2.41,1.25.92,1.77,8.92-4.65,3.37,8.12-24.22,12.14-3.47-6.84,8.54-3.91-.83-1.82-8.61,3.94-5.09-10.03,19.31-9.06,3.57,9.08Zm9.95-17.63l-2.47,1.16-4.8-8.76c-.26-.47-.85-.65-1.33-.41l-5.39,2.74-4.84-11.2,8.37-4.39,10.46,20.85Zm-57.9,19.87l7.23-1.73c.19-.04.35-.14.49-.28l6.83-7.06-1.44-1.39-6.62,6.85-6.97,1.67-1.22-4.83h4.21c.24,0,.47-.08.65-.24l8.69-7.38-1.29-1.52-8.41,7.15h-4.35l-1.42-5.59,13.69-2.5-.36-1.97-13.82,2.53-.38-1.5,12.89-2.49c.1-.02.19-.05.27-.1l4.5-2.36,5.14,21.45-.79.37-16.84,3.57-.67-2.65Zm.5,10.11l-21.06,6.05.55,1.92,5.87-1.69,2.22,12.08-5.74,1.25.43,1.96,21.98-4.79.78,3.08-38.47,7.47-11.84-23.11,43.99-9.33,1.29,5.11Zm-39.36,20.18l-15.78,8.52-6.56-13.75,14.56-9.96,7.78,15.19Zm-4.36-24.71c-.29.04-.55.21-.71.46-.16.25-.2.56-.11.84l1.57,4.93-3.26.69-4.13-8.05-.4-3.36,19.28-2.65.62,5.45-12.86,1.7Zm-2.21-16.21l1.42,3.27c.16.37.53.6.92.6.08,0,.15,0,.23-.03l11-2.62.66,5.85-19.29,2.65-1.02-8.59,6.08-1.14Zm-5.77,16.84l3.64,7.1-14.51,9.93-3.42-7.16,14.3-9.87Zm6.91,39.88l-1.09-1.68-5.04,3.26-3.37-7.05,15.83-8.54,3.55,6.93,4.19,8.73-10,2.53c-.13.03-.25.09-.35.17l-41.91,31.31-3.89-8.4,42.09-27.26Z"/><path class="cls-3" d="m38.08,297.69l-17,12.5,1.18,1.61,16.28-11.97,3.95,4.32,1.48-1.35-4.56-4.98c-.35-.38-.92-.43-1.33-.13Z"/><polygon class="cls-3" points="410.01 0 386 36.7 387.67 37.8 395.2 26.29 399.12 28.67 392.65 39.31 394.35 40.35 400.83 29.71 416.14 39.02 417.18 37.31 396.3 24.61 412.4 0 410.01 0"/><path class="cls-3" d="m380.82,20.12l-1.66-9.19-1.97.36,1.61,8.91-4.32,10.99c-.08.21-.09.45-.02.67l1.56,4.85,1.9-.61-1.45-4.51,4.3-10.92c.07-.17.09-.36.05-.54Z"/><polygon class="cls-3" points="55.34 0 52.22 0 34.73 14.6 36.01 16.13 55.34 0"/><path class="cls-3" d="m113.79,231.04l-4.19,7.98c-.13.25-.15.55-.05.82l4.19,10.96,1.87-.71-4.02-10.54,3.98-7.58-1.77-.93Z"/><polygon class="cls-3" points="151.19 442.05 149.41 442.95 152.97 450 155.21 450 151.19 442.05"/><polygon class="cls-3" points="50.41 434.24 48.64 435.16 56.38 450 58.63 450 50.41 434.24"/><polygon class="cls-3" points="35.05 444.03 33.32 445.03 36.19 450 38.5 450 35.05 444.03"/><path class="cls-3" d="m307.82,450l-6.32-12.73v-.16l22.34-3.52,24.32-2.2,7.09,6.22v4.89h2v-5.35c0-.29-.12-.56-.34-.75l-7.75-6.8c-.21-.18-.48-.27-.75-.24l-24.81,2.25-22.1,3.48v-5.81l18.76-4.97-.51-1.93-18.71,4.96-12.38-24.76,21.65-10.64,4.76,14.15c.1.29.33.52.62.63l5.54,1.93c.09.03.18.05.27.05l26.55,1.6-1.02,10.87,1.99.19,1.08-11.46,7.8-5.91,10.71-.87-.16-1.99-11,.89c-.19.02-.37.09-.52.2l-6.57,4.98,2.01-21.4,17.64,1.96.22-1.99-17.67-1.97,2.32-24.66,13.43,1.49,26.87,9.4.66-1.89-26.98-9.43c-.07-.02-.14-.04-.22-.05l-13.57-1.51,1.11-11.79,24.37,2.25.18-1.99-24.36-2.25,2.16-22.97-1.99-.19-2.53,26.9-12.19-1.81,3.95-37.2,85.24,8.59-.48.18,6.91,18.79-15.08,4.21c-.34.1-.61.37-.7.71l-2.26,8.62-12.63,5.76-3.19-6.84,1.1-7.13-1.98-.31-1.15,7.43c-.03.2,0,.4.08.58l13.37,28.64-20.46,5.38-7.23-4.29-1.02,1.72,7.59,4.5c.16.09.33.14.51.14.08,0,.17-.01.25-.03l21.21-5.58,13.52,28.97,1.81-.85-23.58-50.52,13.05-5.95c.27-.12.48-.37.55-.66l2.24-8.52,14.68-4.1,4.24,11.53-7.52,1.47c-.25.05-.47.19-.62.39l-4.77,6.52,1.62,1.18,4.54-6.2,7.45-1.45,2.53,6.89-6.01,7.75,1.58,1.23,6.2-7.99,14.99-6.74,3.89,10.16,1.87-.71-11.19-29.26,6.16-1.72,9.05,24.13,1.87-.7-20.05-53.46,5,.92,18.1,49.66,1.88-.69-8.57-23.51,5.63-2.72,6.98,21.56,1.9-.62-7.07-21.82,6.82-3.3-.68,1.41,20.44,9.77.86-1.8-20.44-9.77-.07.15-.8-1.65-14.28,6.91-2.79-7.66,18.86-6.74c.33-.12.58-.41.65-.76.06-.35-.06-.71-.33-.94l-25.71-22.23-1.31,1.51,18.57,16.06-13.48,5.57-3.5-9.6c-.12-.33-.41-.58-.76-.64l-6.74-1.24-2.43-6.49-1.87.7,13.55,36.13-6.18,1.72-11.55-30.2-1.87.71,11.48,30.03-14.89,4.16-6.79-18.46.18-1.8-86.78-8.74.99-9.28,16.37,1.39-5.03,5.68,1.5,1.33,12.74-14.39,22.55,10.33.83-1.82-22.16-10.14,7.43-11.13-.29-.19,4.1-6.82,6,.44s.05,0,.07,0c.05,0,.1,0,.15-.01l6.58-1c.38-.06.7-.33.81-.71l1.89-6.48,6.08,2.37,13.33,4.53c.07.02.15.04.22.05l24.99,2.49,15.05,2.32-1.42,8.23-1.99,1.17,1.02,1.72,29.8-17.56-1.02-1.72-13.72,8.08-10.35-1.6,2.02-11.73-1.97-.34-2.02,11.76-15.14-2.34-11.73-1.17v-14.86l14.36,1.39.19-1.99-24.13-2.33-1.42-1.95,3.62-9.83,3.91,1.13.55-1.92-3.77-1.09,4.43-12.03-1.88-.69-4.48,12.16-9-2.6-.55,1.92,8.87,2.56-3.76,10.2c-.12.31-.07.66.13.93l2,2.74c.17.23.43.38.71.41l.7.07-.48,2.99h-8.96l-12.09-4.12c-.26-.09-.54-.07-.78.06-.24.13-.42.35-.5.61l-2.13,7.29-8.79-3.43,4.94-15.44,3.27-12c.08-.28.03-.57-.13-.81-.16-.24-.41-.4-.7-.44l-10.12-1.39,1.08-21.04-2-.1-.58,11.36-30.46-2.97.42-3.94,12.6,1.54.24-1.99-12.63-1.54.68-6.38.8-12.92,13.24,1.06.16-1.99-13.28-1.07.3-4.8,32.59,4.18-1.79,14.1,1.98.25.93-7.3,11.59.85-.9,7.74-12.53-1.16-.18,1.99,13.5,1.25s.06,0,.09,0c.5,0,.93-.38.99-.89l1.72-14.86,19.91,2.55-2.17,15.07-31.7-2.38-.15,1.99,31.56,2.37-.14.98-4.27,13.79,1.91.59,4.29-13.87c.02-.05.03-.1.04-.15l.17-1.19,26.83,2.01,1.1,2.35,1.81-.85-4.63-9.88,2.09-7.42h0s0,0,0,0l46.55-.97,7.78,5.05c.17.11.37.17.58.16l42.21-1.48v-2l-2.17.08-3.15-9.63c-.14-.43-.53-.72-1-.69l-25.56,1.33-3.21-12.11,17.47.31c6.17,3.1,12.88,6.57,17.62,9.05v-2.26c-8.54-4.45-22.41-11.59-28.97-14.5-6.19-2.74-10.31-10.7-13.32-16.51-1.67-3.24-3-5.79-4.34-6.86-7.04-5.6-14.08-8.19-20.94-7.71-2.54.18-4.87.98-6.93,2.07v-38.83c0-.17-.04-.34-.13-.49l-5.84-10.36,1.27-10.9-1.99-.23-.96,8.28-15.15-11.18c-.14-.1-.3-.17-.47-.19l-11.49-1.4.92-9.75-1.99-.19-.91,9.7-11.97-1.46-.24,1.99,12.02,1.46-4.82,51.29-25.05-5.01c-.47-.09-.93.15-1.11.59l-17.76,41.23c-8.63-5.81-14.18-10.34-14.27-10.4-3.83-2.96-12.04-5.96-20.33-5.96-1.79,0-3.52.1-5.14.27l-1.08-12.85c0-.09-.03-.17-.05-.25l-2.01-5.62,28.45.3.02-2-12.37-.13.65-8.23,15.21-.98-.13-2-35.68,2.3-2.21-6.19-3.56-15.41,25.14,7.57.58-1.91-25.96-7.81,4.36-10.66,33.52,15.32.83-1.82-33.6-15.35,2.69-6.58-1.85-.76-2.66,6.5-11.58-5.29,6.6-3.95c.11-.07.21-.15.28-.25l15.12-19.81,12.27,5.17-13.43,20.22,1.67,1.11,13.64-20.53,8.23,3.47-7.13,18.99,1.87.7,7.1-18.92,19.47,8.21.78-1.84-19.54-8.24,3.35-8.91,18.06,10.91,1.04-1.71-18.38-11.1,3.87-10.31-1.87-.7-3.82,10.17-7.38-2.58,3.87-8.19-1.81-.86-8.67,18.32-11.92-5.03,10.7-14.02-1.59-1.21-13.48,17.66-18.84-9.31,4.24-12.05-1.67-.59.88-.4,1.08,1.29,1.54-1.28-.73-.87,35.2-15.96c.05-.02.1-.05.15-.08l17.46-11.93h-3.55l-14.98,10.23-35.62,16.15-6.32-7.6L349.19,0h-3.13l-9.09,7.54-16.68-6.38.6-1.16h-2.25l-.23.44-1.16-.44h-5.6l5.83,2.23-4.16,8.01-4.9,1.22c-.38.09-.66.4-.74.78l-2.23,11.23,1.96.39,2.1-10.61,4.39-1.1,7.02,3,2.8,3.37-7.88,6.54,1.28,1.54,7.88-6.54,5.97,7.18-.41.18.81,1.8-.18-.06-12.33,35.01,1.89.66,7.42-21.07,18.27,9.03-12.24,16.04-7.62,4.56-18.11-8.27v-5.79l10.29-31.77-1.9-.62-10.33,31.92c-.03.1-.05.2-.05.31v5.03l-1.33-.61c-.13-.06-.27-.09-.42-.09h-36.72c-.07,0-.13,0-.2.02l-12.13,2.46-.49-1.71-4.04-17.24,20.27-8.66,10.44,18.75,1.75-.97-21.75-39.07c-.13-.24-.36-.41-.62-.48-.26-.07-.55-.03-.78.12l-12.84,7.99-5.61-8.99,13.57-8.49c1.23-.38,4.35-1.23,5.86-1.23,3.01,0,4.66.59,4.95,1.17.7,1.4,2.94,6.36,2.97,6.41l1.82-.82c-.03-.06-.26-.58-.59-1.3l17.09-11.46h-3.59l-14.34,9.62c-.52-1.13-1.06-2.29-1.41-3.02l1.49-6.6h-2.05l-1.11,4.91c-1.43-.72-3.48-.91-5.23-.91-.36,0-.77.04-1.21.1l1.03-4.1h-2.06l-1.13,4.5c-1.63.37-3.1.82-3.2.86-.08.03-.16.06-.23.11l-13.68,8.56-6.56-10.5,6.18-3.53h-4.03l-3.2,1.83-1.14-1.83h-2.36l1.76,2.82-36.73,20.97L179.43,0h-2.38l6.5,10-6.08,3.98-9.54-13.99h-2.42l10.29,15.09-9.98,6.54-11.19-16.38,7.3-5.24h-3.43l-15.39,11.06-19.72,11.3-11.23-19.46,4.97-2.91h-3.96l-2.01,1.18-.68-1.18h-2.31l1.26,2.18-24.24,14.17-14.76,10.52-10.48-15.7L75.16.14l-.1-.14h-3.11l-30.68,22.2-7.5,5.71L10.93,0h-2.58l3.74,4.57L0,13.86v2.52L13.35,6.12l12.11,14.81c-1.46,1.33-12.82,11.44-17.29,15.42l1.33,1.49c3.72-3.31,15.2-13.52,17.23-15.37l5.44,6.65-17.82,13.57,1.21,1.59,17.78-13.54c.98,1.55,2.52,3.99,4.33,6.83l-16.67,12.04,1.17,1.62,16.57-11.97c1.41,2.22,2.93,4.62,4.44,6.99l-14.08,10.03,1.16,1.63,14-9.97c2.52,3.94,4.92,7.68,6.61,10.28l-2.89,2.04,1.15,1.63,2.84-2c.69,1.03,1.15,1.71,1.3,1.86l1.48-1.35c-.13-.16-.53-.74-1.15-1.67l24.22-17.09,2.94,4.89-12.1,7.94,1.1,1.67,12.04-7.9,7.87,13.09v7.23h2v-7.51c0-.18-.05-.36-.14-.52l-8.06-13.4,5.22-3.43,17.45,29.43,1.72-1.02-17.98-30.33c-.14-.24-.37-.4-.63-.46-.27-.06-.55-.01-.77.14l-6.03,3.96-2.98-4.95,15.79-11.14-1.15-1.63-15.71,11.08-6.86-10.29,14.74-10.5,24.16-14.12,11.22,19.44-22.47,12.88.99,1.74,22.47-12.88,10.07,17.44-20.28,12.37,1.04,1.71,37.68-22.99,20.04-13.14-1.29.99,8.83,11.52-22.03,12.58.99,1.74,22.27-12.71,10.08,13.15-5.95,4.09c-.09.06-.17.14-.24.23l-12.02,16.45-30.41-2.94c-.14-.01-.28,0-.41.05l-18.2,6.08.63,1.9,18-6.01,30.76,2.97c.35.03.7-.12.9-.41l12.26-16.78,5.82-4,18.14,28.57-16.35,8.35-8.95-4.58-.91,1.78,7.66,3.92-5.02,2.56.91,1.78,6.11-3.12,3.28,9.14,1.88-.67-2.65-7.38,3.99,2.04,5.77,12.14-7.47,4.28,1,1.74,7.34-4.21,3.95,8.31,1.81-.86-4.01-8.45,14.48-8.3,5.8,21.67,1.93-.52-5.93-22.18h.01s-.03-.05-.03-.05l-1.02-3.83,4.31-1.95,6.58,23.02s.02.07.03.1l6.17,15.37-10.62,4.6-5.56-12.58-1.83.81,5.55,12.57-5.04,2.18.79,1.84,5.05-2.19.66,1.48v5.98h2v-6.19c0-.14-.03-.28-.09-.4l-.73-1.66,10.56-4.58,1.59,3.95c.07.18.19.33.35.44l15.65,11.16,1.16-1.63-15.41-10.99-1.49-3.72,3.12-1.3h7.58l10.65,5.02.85-1.81-10.85-5.12c-.13-.06-.28-.1-.43-.1h-8c-.13,0-.26.03-.38.08l-3.28,1.37-6.13-15.29-6.65-23.25,3.96-1.79,11.6,22.58c.1.19.26.35.46.44l13.4,6.42c.14.06.28.1.43.1.09,0,.18-.01.26-.04l11.65-3.18-.53-1.93-11.29,3.08-12.76-6.12-6.4-12.45,19.72-9.04,3.83,13.45,1.92-.55-3.92-13.74,5.35-2.45c.29-.13.5-.4.56-.71l.75-3.69,4.94-1.08-.43-1.95-4.08.89,2.32-11.49h18.48l-3.83,12-11.75-3.54-.58,1.92,11.72,3.53-3.13,9.79.37.12-16.19,7.44.84,1.82,32.37-14.88,4.96,1.49-1.99,6.64-.15-.29-32.78,16.65.91,1.78,31.36-15.93-9.13,30.46,1.92.57,5.92-19.74,15.85,4.64,7.7,7.61,9.55,25.53c.04.11.1.21.18.3l4.88,5.71-10.84,8.61s-.09.08-.14.13l-10.32,12h.01c-.05.07-.1.11-.14.18l-2.91,5.44-27.63-19.55-1.15,1.63,11.52,8.15-13.58,21.88,1.7,1.05,13.52-21.78,19.93,14.1-4.34,29.91-6.51-2.24,1.54-12.34-1.98-.25-2.95,23.6-8.29,24.22-22.09,15.56,1.15,1.63,15.66-11.03,2.73,4.79-2.67,1.86c-.22.16-.37.4-.42.67-.04.27.03.55.2.76l4.16,5.36c.19.24.48.39.79.39h18.09s-.86,8.57-.86,8.57l1.99.2.87-8.72,19.67,1.61-.56,7.93,1.99.14.56-7.91,11.13.91-2.05,19.28-41.38-4.3.2-9.77-2-.04-.19,9.6-18.11-1.88-1.09-2v-7.49h-2v7.09l-2.65,1.15c-.25.11-.44.31-.54.57l-6.08,16.25-8.63,4.85-4.44-7.32c6.71-8.98,17.68-23.66,18.87-25.17l-1.57-1.24c-.65.82-4.04,5.32-8.07,10.72l-15.71,5.03-1.18-1.95v-6.78l3.38,1.48c.13.06.26.08.4.08s.26-.03.38-.08l9.07-3.75-.76-1.85-8.68,3.59-3.79-1.66v-5.94l3.66-9.31,5.42,3.58c.17.11.36.17.55.17.11,0,.22-.02.32-.05.29-.1.52-.33.62-.62l2.11-6.17-1.89-.65-1.7,4.94-18.41-12.15-1.1,1.67,12.35,8.15-3.89,9.88c-.05.12-.07.24-.07.37v5.25l-14.05-6.15-23.98-13.53,3.96-5.29,6.53-5.55,6.71,2.3.65-1.89-7.25-2.48c-.33-.11-.7-.04-.97.18l-7.05,5.99c-.06.05-.11.1-.15.16l-4.18,5.59-17.78-10.03-3.93-5.5c-.19-.26-.49-.42-.81-.42h-11.96c-.14,0-.27.03-.4.08l-9.13,3.98.8,1.83,8.94-3.9h7.66l-2.12,15.83h-11.25c-.1,0-.2.02-.3.04l-8.44,2.62h-11.47v2h11l8.29,17.12,1.8-.87-8.06-16.63,7.33-2.28h11.4l4.59,12.77-11.14,2.93.51,1.93,19.08-5.02,9.55,5.88-3.65,2.64-7.14-5.28c-.33-.24-.77-.26-1.11-.05l-8.25,5c-.46.28-.62.87-.36,1.33l20.32,37.25c.13.24.35.41.6.48l15.01,4.31-10.29,20.1,1.78.91,10.35-20.22,12.64,7.75-13.79,15.78c-.24.28-.31.66-.19,1l3.05,8.3,1.88-.69-2.85-7.75,13.63-15.59,18.99,11.65,5.78,11.55-8.56,3.94-5.79-12.06-1.8.87,5.78,12.04-6.97,3.21-5.89-12.16-1.8.87,9.22,19.03-51.25,24.76-3.82-8.82,15.95-19.88-1.56-1.25-15.28,19.05-1.69-3.9,2.82-1.18c.26-.11.46-.32.55-.58.1-.26.08-.55-.04-.8l-6.09-12.1,2.26-9.83,4.64-2,6.37,14.36,1.83-.81-6.37-14.34,15.86-6.83-.79-1.84-15.88,6.84-2.81-6.33c-.06-.14-.15-.25-.26-.34l2.03-8.86,9.06-14.36-1.69-1.07-9.15,14.5c-.06.1-.1.2-.13.31l-2.24,9.76-13.03,5.6-3.95-8.78,1.68-7.58c.05-.21.02-.43-.07-.63l-11.77-25.86,17.49-10.87,3.44,6.68-5.82,3.28c-.46.26-.64.82-.42,1.29l4.33,9.29,1.81-.85-3.94-8.45,5.85-3.3c.47-.26.64-.85.4-1.33l-9.26-18c-.24-.47-.8-.67-1.28-.46l-20.15,8.5c-.25.1-.44.31-.54.56-.1.25-.09.53.02.78l5.46,11.99-4.03,1.8-8.09-18.87-1.84.79,8.1,18.89-22.48,10.03-7.83-17.53-1.83.82,7.83,17.53-19.54,8.71c-.09.04-.18.1-.25.16l-5.33,4.7-9.32-16.4-1.74.99,9.8,17.24v4.49c0,.14.03.27.08.4l1.89,4.34-20.63,14-12.58-23.96-1.77.93,12.68,24.16-7.32,4.97-12.89-23.09-1.75.97,12.98,23.24-9.1,6.17-21.24-33.65-1.69,1.07,21.28,33.71-14.16,9.61-14.36-20.14-1.63,1.16,14.33,20.1-17.93,12.17,1.12,1.65,17.97-12.2,11.9,16.7,1.63-1.16-4.25-5.97,13.63-8.85,1.62,2.57-3.85,15.79-27.41,15.74-12.4-22.57-1.75.96,12.42,22.61-5.87,3.37-13.08-21.73,7.95-5.26-1.1-1.67-16.21,10.73-8.15-13.9-.86.51v1.98l7.34,12.52-7.34,4.86v2.4l8.36-5.53,12.44,21.21-11.57,6.64-9.23-15.73v3.95l7.49,12.77-7.49,4.3v2.31l67.84-38.95c.24-.14.41-.36.47-.63l3.79-15.56,8.82,2.94-2.65,13.78,1.96.38,2.75-14.33,3.1-3,.53-.29-.02-.03,7.49-3.09,23.7,45.13-20.11,9.72-19.66-33.25c-.23-.39-.69-.57-1.12-.46-.44.12-.74.51-.74.96v12.77l-3.69-6.05,1.75-6.46-1.93-.52-5.91,21.8c-.07.26-.03.54.11.78l11.84,19.78-7.57,3.66h4.6l4.01-1.94,1.16,1.94h2.33l-1.68-2.81,15.73-7.6,6.15,10.41h2.32l-6.67-11.28,20.02-9.67,8.12,15.48-.89.28c-.06.02-.12.04-.17.07l-9.63,5.13h4.25l6.23-3.32,25.95-8.03,13.07,1.62,9.05,5.7c.11.07.24.12.38.14l8.1,1.28.6,2.62h2.05l-.58-2.51,19.33-.24c.26,0,.52-.11.7-.3l3.68-3.75c.18-.19.29-.44.29-.7v-5.37l2.79-1.3,1.74,3.88c.16.36.52.59.91.59.06,0,.11,0,.17-.01l39.79-6.91-.34-1.97-39.03,6.78-1.59-3.54,4.34-5.52c.14-.18.21-.39.21-.62v-14.5h-2v14.15l-3.48,4.43-6.01-13.38,2.44-7.14-1.89-.65-2.56,7.52c-.08.24-.07.5.03.73l6.45,14.35-2.49,1.16-6.82-14.35c-.11-.24-.31-.42-.56-.51l-5.15-1.91-5.17-6.35-1.55,1.26,4.22,5.18-16.8,7.35-7.22-18.23-1.86.74,7.25,18.3-22.11,9.67-9.82-19.08,45.7-22.08,2.59,5.85-2.6,6.61,1.86.73,2.75-7c.1-.25.09-.53-.02-.77l-2.78-6.3,1.59-.77,2.86,6.62c.1.23.29.42.52.52l6.34,2.78,2.34,7.02-.12.05.52,1.15.06.17h.02s.23.5.23.5l50.78-22.97,4.06,8.39-16.97,9.36.97,1.75,16.88-9.31,8.61,17.77,1.8-.87-23.96-49.47,17.3-8.36,35.06,70.1v6.92l-2.38,1.29-8.24-3.37c-.16-.07-.33-.09-.51-.07l-13.59,1.79-21.82,5.02c-.24.06-.45.2-.59.4l-6.54,9.28h2.45l5.51-7.82,19.82-4.57,5.37,8.2-16.62,3.2.19.98h5.29l12.32-2.38,1.56,2.38h2.39l-1.83-2.8c.07-.02.14-.04.21-.07l17.11-9.25s0,.04.02.07l2.98,6-10.39,6.05h3.97l7.31-4.26,2.11,4.26h2.23Zm171.43-144.29l4.15,3.59-17.26,6.17-1.37-3.77,14.49-5.98Zm-24.32,27.1l6.66,17.41-14.34,6.45-7.24-19.69,14.92-4.17Zm15.16-56.22l-9.11,5.37,1.13-6.59,7.97,1.23Zm-100.36-230.28l7.54,2.63-3.38,9-8.06-3.4,3.9-8.24Zm-47.42-32.62c-.1-.12-.23-.22-.38-.28l-6.56-2.8,3.97-7.66,15.84,6.06-9.92,8.24-2.96-3.55ZM34.94,29.54l7.53-5.73,15.85-11.47,4.65,6.97-23.67,17.1c-1.51-2.38-2.99-4.71-4.35-6.87Zm5.43,8.56l23.71-17.13,4.71,7.05-23.97,17.07c-1.45-2.27-2.96-4.65-4.45-7Zm36.39,1.86l-24.25,17.11c-1.63-2.5-3.99-6.18-6.61-10.29l24-17.1,6.86,10.28ZM10.03,404.37l6.68-4.42,13.01,21.62-7.19,4.13-12.5-21.32Zm70.1,41.09l-11.71-19.56,3.33-12.27,4.56,7.47c.23.38.69.56,1.12.44.43-.12.73-.51.73-.96v-12.67l17.71,29.96-15.74,7.6Zm207.62-44.69l-5.63-11.26,7.86-4.36c.25-.14.43-.38.49-.67l1.84-8.81,10.97,4.51c.12.05.25.08.38.08s.26-.03.39-.08l2.01-.84,3.59,10.68-21.9,10.77Zm-4.07-19.5c.23-.19.37-.48.37-.78v-8.24l6.39,2.63-1.82,8.73-7.39,4.1-1.59-3.18,4.04-3.27Zm-4.96,1.43l-5.6-11.2,6.27-1.16,2.66,1.09v8.59l-3.33,2.69Zm69.49,25.58l-26.48-1.6-4.95-1.73-4.68-13.94,16.14-7.94,22.1,2.46-2.14,22.74Zm-20.03-27.22c-.18-.02-.38.01-.55.1l-16.17,7.95-3.55-10.57,19.59-8.23,24.16,1.39-1.12,11.86-22.36-2.49Zm25.6-31.99l-1.94,20.63-24.46-1.41c-.15,0-.3.02-.45.08l-19.67,8.27-2.38-7.07,19.12-9.43-.88-1.79-18.88,9.31-8.17-24.32,23.48-11.35h8l-3.34,31.31,1.99.21,1.94-18.25,11.43,1.7-.86,8.14,1.99.21.86-8.05,12.21,1.82Zm-59.59-11.33c-.05-.15-.14-.29-.25-.4l-2.37-2.32,16.98-8.76-.92-1.78-17.57,9.06-28.21-27.56,2.14-4.02,23.42-13.15,15.38,28.16,1.76-.96-6.29-11.52h11.95l20.08,2.02-2.5,23.48h-8.44c-.15,0-.3.03-.43.1l-23.46,11.34-1.24-3.68Zm37.26-42.26l-.96,9.04-19.24-1.94v-8.82l20.21,1.72Zm-20.21-3.73v-7.5l21.17,2.2-.75,7.04-20.42-1.74Zm-2,10.73h-12.09l-5.69-10.41,17.77,1.51v8.9Zm30.55,42.48l-11.43-1.7,3.9-36.56,11.48,1.16-3.94,37.1Zm4.15-39.09l-11.48-1.16.97-9.07,11.49.98-.98,9.25Zm3.19-11.06l.72-6.75,22.35,2.32-5.26,5.94-17.81-1.52Zm-31.78-45.1l-2.11-4.43,3.24,1.27-1.12,3.17Zm-11.58-2.29l-6-3.39,5.84-17.06,7.15,5.57-1.31,9.05c-.03.2,0,.4.09.57l.44.92-6.21,4.33Zm32.8-3.98l-14.97-1.01c-.22,0-.44.04-.62.17l-3.36,2.25-5.64-2.21-.51-1.06,1.22-8.4,24.46,2.03-.59,8.23Zm-18,3.17l3.23-2.17,14.63.99-.58,8.21-18.99-2.18,1.72-4.86Zm34.91-30.46l-4.15,39.05-11.5-1.32,2.77-38.98,12.88,1.26Zm33.06,32.28l.36-6.92,6.13.81-2.09,6.54-4.4-.43Zm3.77,2.38l-2.7,8.43h-1.63l.45-8.81,3.88.38Zm-5.77-2.58l-32.13-3.16.85-8.02,31.63,4.2-.36,6.99Zm-32.34-1.17l32.24,3.17-.46,8.95-32.66-3.75.89-8.37Zm79.41,7.46v14.85l-7.88-.79,2.35-14.6,5.53.53Zm-28.71.38l11.26,3.83c.1.04.21.05.32.05h8.8l-1.55,9.61-1.33-.13-13.18-4.48-6.21-2.42,1.88-6.46Zm-4.31,7.65l-1.76,6.03-5.83.89-5.53-.41.4-7.83h2.46c.43,0,.82-.28.95-.7l.46-1.44,8.84,3.45Zm-2.24-32.23l-2.74,10.06-6.61-.88.54-10.39,8.82,1.21Zm-10.32-11l-.39,7.5-18.19-2.5-.27,1.98,18.36,2.53-.54,10.4-31.53-4.18,1.99-18.71,30.56,2.98Zm-27.71-38.99l.16-2.61c.03-.55-.38-1.02-.93-1.06l-11.35-.78,1.17-8.45,45.33,4.02-1.66,13.07-32.72-4.2Zm36.81-12.13c6.38,4.01,13.41,7.62,19.56,10.18l-.37,9.13-21.3-2.73,2.11-16.58Zm40.38-40.26l10.16,2.03,5.52,7.18-2.2,3.11-15.99,10.26,1.68-13.75.83-8.83Zm-3.52,30.81l28.3-1.47c-1.21,2.73-2.49,5.67-3.68,8.44l-5.33,6.94c-3.24,4.65-11.2,7.37-21.92,7.55l2.63-21.46Zm17,18.79l1.92,14.67-22.57-2.9.79-7.1c8.57-.11,15.39-1.73,19.86-4.68Zm1.83-1.4c.8-.71,1.51-1.47,2.08-2.29l.57-.74,10.75.19,1.77,18.9-13.02.27-2.14-16.33Zm4.16-5.01l3.29-4.29c.05-.07.09-.14.13-.21,1.19-2.76,2.71-6.25,4.14-9.46l10-.52.9,14.81-18.46-.33Zm-28.63,17.93l-10.05-1.29.35-8.59c4.23,1.65,7.9,2.73,10.47,2.99l-.76,6.89Zm-22.63,3.36l-11.57-.85.61-4.8,11.44,1.47-.48,4.18Zm45.01,9.3c-.06.23-.05.48.06.7l2.71,5.78-25.57-1.92,2.16-14.97,22.76,2.92-2.11,7.49Zm94.27-14.69l2.73,8.35-25,.88-2.11-7.96,24.37-1.27Zm-24.32,9.3l-10.66.38-7.78-5.05c-.17-.11-.36-.15-.56-.16l-31.68.66-1.77-18.82,46.59.84,5.87,22.15Zm-36.13-58.59c6.43-.44,12.82,1.94,19.56,7.29,1.01.8,2.31,3.31,3.81,6.21,3.14,6.07,7.45,14.39,14.28,17.42,2.06.91,4.87,2.26,8,3.8l-52.75-.95-.97-15.96c-.03-.55-.51-.98-1.05-.94l-9.97.52c1.58-3.5,2.9-6.31,3.28-6.85.16-.15.36-.39.74-.85,1.86-2.27,7.5-9.16,15.07-9.69Zm-16.62,8.42c-.27.33-.46.56-.55.66-.48.41-2.15,3.93-4.17,8.42l-28.97,1.5.44-3.63,17.55-11.26c.11-.07.2-.16.28-.26l13.69-19.35,9.28-6.64v23.42c-3.72,2.48-6.36,5.69-7.55,7.14Zm-25.4-71.65l11.17,1.36,15.86,11.71-.08.66c-.02.21.02.42.12.61l5.87,10.41v13.88l-10.58,7.57c-.09.06-.17.14-.23.24l-10.26,14.51-5.38-6.99c-.15-.19-.36-.32-.6-.37l-10.73-2.15,4.83-51.44Zm-31.45,48.15l24.46,4.9-.85,9.01-1.28,10.44-29.72-7.2,7.38-17.14Zm-8.18,19l30.28,7.34-3.82,31.19c-6.13-.56-20.04-6.64-31.36-13.79-1.57-.99-3.07-1.96-4.5-2.91l9.4-21.82Zm-7.63,25.36l-.31,2.46-34.07-3.02,6.46-17.03c3.79,1.06,7,2.58,8.94,4.08.08.06,7.7,6.26,18.97,13.51Zm-29.87-18.09l-6.58,17.34-9.17-.81,2.39-17.19c1.63-.17,3.38-.28,5.17-.28,2.81,0,5.6.36,8.19.95Zm-15.41-.42l-2.33,16.77-9.31-.83-6.07-6.45,9.9-7.86c.74-.22,3.77-1.06,7.81-1.62Zm13.68-30.92l-.64,8.08-14.82-.15-2.42-6.77,17.87-1.15Zm-22.04-36.07l-4.47,10.91-28.62-8.61,4.59-15.32,15.17,6.93.19.32.22-.13,12.91,5.9Zm-104.52-33.69l13.25-6.15.55,4.31-10.34,8.35-3.47-6.52Zm-1.04-1.95l-4.75-7.47,17.24-10.73,1.53,11.91-13.93,6.46-.09-.18Zm-19.69-30.97l8.12-4.63,6.43,11.24-7.4,4.63-7.14-11.23Zm15.54,8.34l5.25,9.17-6.92,4.3-5.65-8.89,7.32-4.58Zm30.69-4.31l9.82,17.65-19.64,8.39-2.37-18.45,12.18-7.58Zm-14.71,6.8l-9.04,5.63-5.25-9.17,8.68-5.43,5.61,8.98Zm-6.67-10.68l-8.62,5.39-6.39-11.17,8.4-4.8,6.6,10.57Zm-89.19,16.85l-15.66,9.55-3.87-6.7,10.83-6.6,7.77-1.71-.43-1.95-7.93,1.75c-.11.02-.21.07-.31.12l-10.93,6.66-5.18-8.97,19.76-11.33s.06-.04.09-.06l8.77-6.3,5.83,8.54-12.4,5.64.83,1.82,12.72-5.79,4.17,6.1-14.06,9.21Zm21.43-11.66l13.12-8.6,8.5,13.1-12.64,7.22-8.98-11.72Zm10.21,13.32l12.63-7.21,10.25,11.36-12.9,8.87-9.98-13.02Zm11.12,14.66l13.11-9.01,1.48,1.64,1.49-1.34-12.79-14.18,16.55-9.45,13.91,21.87-12.61,7.84,1.06,1.7,12.62-7.85,4.72,7.42h0s-13.67,6.35-13.67,6.35l.84,1.81,7.16-3.32,6.58,12.22,1.76-.95-6.52-12.12,4.79-2.22,7.08,13.32,1.77-.94-2.61-4.91,9.84-7.95,3.88,16.55.46,1.6-26.19,5.31-.11.02-2.87-5.58-1.78.91,2.63,5.11-8.12,1.78c-.08.02-.16.05-.24.09l-5.92,3.02-18.29-28.79Zm35.54,25.3l25.91-5.25,3.16,11.09-23.44,5.11-5.63-10.95Zm-6,16l-3.41-12.74-1.93.52,4.57,17.1-14.81,8.49-4.59-9.65,10.33,5.28.91-1.78-6.62-3.39,8.25-3.93-.86-1.81-9.63,4.59-9.41-4.81,22.66-11.57,5.12-1.12,3.69,12.89-4.27,1.93Zm6.12-2.77l-3.57-12.49,1.43-.31,5.74,11.17-3.6,1.63Zm10.43,7.29l-3.98-7.74,23.05-5.02,1.01,3.56-20.08,9.2Zm26.53-12.16l-4.61,2.11-.9-3.14,5.98-1.3-.47,2.33Zm.91-4.48l-6.96,1.52-3.15-11.06,11.88-2.41h.65l-2.42,11.95Zm23.1-11.95h10.37l-5.22,14.75-7.23-2.18,3.83-12.01-1.76-.56Zm-5.37,22.9l2.69-8.42,9.45,2.84-12.13,5.58Zm12.44-7.57l5.42-15.33h2.58l4.79,2.19-4.67,15.58-8.11-2.44Zm28.71,35.48l-8.04-7.94c-.12-.12-.26-.2-.42-.25l-16.08-4.71,5.29-17.65,29.15,8.77,3.83,16.58s.02.07.03.11l5.17,14.5-14.46,2.25-4.23-11.31c-.05-.14-.13-.26-.23-.36Zm5.18,13.58l14.43-2.25,2.17,6.07,1.07,12.78c-3.82.51-6.79,1.27-8.03,1.62l-5.02-5.88-4.62-12.35Zm-1.7,29.39l6.44,6.84c.17.18.4.29.64.31l9.59.85-1.18,8.49-8.21-.56v-4.7c0-.43-.28-.82-.69-.95l-12.04-3.94,5.45-6.34Zm5.28,15.79l-4.38-.3-10.24-4.63,2.48-2.89,12.14,3.97v3.84Zm-14.09,4.62l-4.31-3.05,2.59-4.84,10.77,4.86c.11.05.22.08.34.09l14.64,1.01-3.18,22.86,1.98.28,3.2-23,10.5.72-1.43,23.28-1.3,12.28-17.64-1.72.82-11.63-1.99-.14-.82,11.58-10.73-1.05c-.28-.03-.56.07-.77.25-.21.19-.33.46-.33.74v8.6h2v-7.5l3.9.38-1.07,7.49,1.98.28,1.08-7.58,8.48.83-1.32,18.51-24.32-2.01,7.34-50.57c.05-.37-.1-.74-.41-.96Zm-13.92,40.31l1.16-9.33,6.47,2.22-2.52,17.39-6.8-5.29,1.64-4.79c.02-.06.04-.13.05-.2Zm-13.9,28.88l4.53-3.19,5.33,3.02-7.13,4.97-2.74-4.8Zm3.65,12.98l-3.22-4.14,18.34-12.78,3.62,7.58-.94,9.35h-17.8Zm19.81.07l.85-8.48,19.32,2.22-.56,7.87-19.61-1.6Zm21.6,1.77l.55-7.8,11.43,1.31-.79,7.41-11.2-.92Zm12.98,3.07l12.57,1.03.16-1.99-12.52-1.02.78-7.34,32.77,3.76-.44,8.51-6.14,10.21.15.09-5.71,8.55-23.68-2.46,2.05-19.33Zm-4.97,27.89l-11.49-.98.75-7,11.46,1.19-.72,6.79Zm-35.9-10.59v7.53l-18.39-1.57-.07.81-5.04-9.22,23.49,2.44Zm-29.21-4.15l2.02-.88,4.39,8.04-11.52,6.47,5.1-13.63Zm-17.94,21.37l-1.74,3.26-5.86-5.73c.64-.86,1.83-2.46,3.37-4.51l4.23,6.97Zm4.23-21.63c-2.84,3.79-5.81,7.78-8.29,11.09l-4.29-7.06,12.58-4.02Zm-31.82-13.91s.06.03.09.04l14.9,6.52v7.94c0,.18.05.36.15.52l7.1,11.7c-1.63,2.18-2.94,3.93-3.69,4.94l-20.86-20.38c-.12-.11-.26-.2-.41-.24l-13.44-4c-.16-.05-.34-.05-.5-.02l-6.32,1.41-15.24-9.39,10.01-7.49c.08-.06.14-.12.2-.2l3.77-5.04,24.25,13.68Zm-35.58-5.44l-1.27-6.97h1.19l4.94,3.34-4.85,3.63Zm-13.81-24.81h1.55l3.76,5.27c.09.12.19.22.32.29l17.74,10.01-3.53,4.71-.51.38.67-1-5.42-3.67c-.16-.11-.36-.17-.56-.17h-16.15l2.12-15.83Zm-1.71,17.83h12.21l1.52,8.31-3.08,2.31-6.23,1.64-4.41-12.26Zm27.4,22.77c.22.14.49.18.74.12l6.47-1.44,12.96,3.85,5.5,5.37-12.53,24.46-17.51-19.52-1.49,1.34,7.4,8.25-10.02,7.52-11.97-21.95,15.38-11.13,5.08,3.13Zm-18.37-4.9l6.09,4.5-9.15,6.62-3.8-6.97,6.86-4.16Zm12.81,40.2l-1.96-3.59,10.39-7.8,9.29,10.35-2.73,5.34-14.98-4.3Zm16.81,5.12l2.95-5.76.55-.49-.19-.21,12.6-24.59,16.89,16.5-19.73,22.57-13.06-8.01Zm34.23-13.16l3.03,2.96-15.86,23.33-6.61-4.05,19.44-22.23Zm-.49,33.85l-10.63-6.52,15.61-22.95,31.6,30.87,1.24,3.7-28.27,13.66-9.18-18.35c-.08-.17-.21-.31-.37-.41Zm-67.93,36.2l-9.33,3.91-1.73-4.28.07-.03-2.97-6.55c-.07-.16-.19-.28-.32-.38l2.89-1.72c.44-.26.61-.81.4-1.28l-6.18-13.45,2.04-.88,5.92,13.16c.16.36.52.59.91.59h2.81l5.49,10.92Zm-72.13-2.37l-20.73,8.55-5.66-10.77,20.9-10.42,5.49,12.64Zm7.52-1.04l.51,1.99-1.63,1.89-3.33-.81-.42-.97,4.88-2.09Zm2.36,2.9c.21-.25.29-.58.21-.9l-.71-2.8,43.73-18.79,5.83,12.68-3.81,2.26-7.98-1.81c-.21-.05-.44-.03-.64.07l-36.58,16.68-2.03-5.11,1.98-2.29Zm64.51-25.19l-3.27,1.41,1.33-5.79,1.94,4.38Zm-3.91-4.76l-4.03,17.54h-1.99l-5.64-12.54,11.66-5.01Zm-14.06-60.17l4.04,7.86-17.41,10.82-4.98-10.93,18.35-7.74Zm-2.72,46.89l-1.68,7.58c-.05.21-.02.43.06.63l4.08,9.05-2.06.88-4.01-8.73c-.08-.17-.2-.31-.35-.41l-6.69-4.55-4.11-9.95-7.11-15.37,10.28-4.59,11.58,25.45Zm-61.15-3.34l19.4-8.65,6.55,14.66,1.83-.82-6.55-14.66,16.24-7.24,7.11,15.35,4.21,10.19c.07.18.2.33.36.45l6.71,4.56,3.88,8.43-50.43,21.66-15.09-34.72v-4.09l5.8-5.12Zm-5.02,16.02l6.18,14.21-21.03,10.49-5.66-10.77,20.51-13.92Zm-22.17,15.05l5.58,10.63-7.11,4.61-5.76-10.31,7.28-4.94Zm-8.94,6.07l5.74,10.27-8.6,5.58-6.15-9.74,9.01-6.12Zm-18.27,25.85l-6.46-9.07,14.06-9.54,6.12,9.7-13.73,8.91Zm18.14-5.66l-1.67-2.65,8.51-5.52,5.17,9.26-2.24,2.17-9.77-3.25Zm13.58-.19l-5.06-9.07,7.06-4.59,5.54,10.54-7.54,3.11Zm30.92-10.59l.63,1.45c.12.29.38.5.68.57l3.91.95,2.1,5.28-22.62,10.32-5.29-10.07,20.6-8.5Zm-14.38,20.35l22.43-10.23,4.52,11.38,11.3,21.97-20.83,10.06-17.42-33.18Zm92.56,26.55l.09.11c.11.14.26.24.43.31l5.03,1.86,6.98,14.67v5.38l-3.1,3.16-19.47.24-7.04-17.77,17.26-7.55-.17-.39Zm-12.3,25.47l-6.83-1.08-9.06-5.71c-.12-.08-.26-.13-.41-.15l-9.89-1.23,19.57-8.56,6.62,16.72Zm-31.37-8.22l-22.27,6.9-8.27-15.74,20.81-10.06,9.72,18.91Zm13.37-32.29l1.46-4.69c.08-.24.06-.5-.05-.73l-8.4-17.66-1.81.86,8.23,17.31-1.9,6.1-19.74,9.54-11.28-21.92-4.52-11.38,36.36-16.58,9.51,2.16,2.03,4.47,1.12,2.77-7.61,17.36,1.83.8,6.82-15.58.58,1.44c.1.25.3.45.54.55.12.05.25.08.38.08s.26-.03.39-.08l2.99-1.25,6.64,15.03-23.59,11.4Zm25.39-12.27l-6.6-14.93,1.75-.73,6.45,14.89-1.6.77Zm13.88,9.92c-.09-.27-.29-.49-.55-.6l-6.39-2.8-2.74-6.33,15.4-7.44,8.74,18.96-12.05,5.45-2.41-7.25Zm51.19-14.82l-34.9,15.79-8.76-19.01,34.12-16.49,9.55,19.71Zm-11.08-27.45l6.96-3.21,2.38,4.95-6.89,3.33-2.46-5.08Zm11.14.88l-2.36-4.92,8.59-3.96,2.36,4.73-8.59,4.15Zm39.31-16.77l11.16,33.2-1.76.74-23.79-9.79c-.18-.07-.37-.09-.56-.06l-7.13,1.32-5.94-11.88,28.02-13.54Zm-12.6,101.07l-.57.11-5.38-8.22,12.66-1.66,6.48,2.64-13.18,7.13Z"/><path class="cls-3" d="m97.43,288.77c-.31-.06-.63.04-.87.26l-7.68,7.29,1.38,1.45,6.69-6.36,7.12,14.55,1.8-.88-7.72-15.77c-.14-.29-.41-.49-.72-.54Z"/><rect class="cls-3" x="237.92" y="233.8" width="2" height="10.41" transform="translate(-90.2 315.74) rotate(-58.13)"/><path class="cls-3" d="m219.8,295.43l1.89.64,3.05-9c.14-.41,0-.86-.34-1.12l-9.99-7.59-1.21,1.59,9.42,7.15-2.82,8.32Z"/><path class="cls-3" d="m256.93,228.5l-1.4,1.43,9.38,9.14c.19.18.44.28.7.28.03,0,.06,0,.09,0,.29-.03.56-.18.73-.42l7.81-11.17c.3-.43.22-1.02-.19-1.35l-9.07-7.31-1.25,1.56,8.35,6.73-6.6,9.44-8.54-8.32Z"/><rect class="cls-3" x="257.33" y="176.01" width="2" height="40.32" transform="translate(-49.11 299.61) rotate(-55.81)"/><path class="cls-3" d="m223.09,142.05l-16.71,17c-.19.2-.29.46-.29.73,0,.27.13.53.33.71l21.41,19.08-11.06,11.69,1.45,1.38,4.76-5.03,7.88,6.41,1.26-1.55-7.77-6.32,4.97-5.25,8.92,7.95,1.33-1.49-8.88-7.91.02-.02-1.45-1.38-.06.06-20.67-18.42,15.97-16.25-1.43-1.4Z"/><path class="cls-3" d="m286.58,208.77l6.25-9.29c.14-.21.2-.47.16-.72l-1.22-7.64-1.97.32,1.16,7.25-6.03,8.96,1.66,1.12Z"/><path class="cls-3" d="m487.48,15.12s-.08.1-.11.16l-15.53,28.62-42.59-24.47-1,1.73,31.46,18.07-14.32,24.76,1.73,1,14.33-24.77,9.44,5.42-13.67,25.19,1.76.95,30.12-55.49,13.38-16.31h-2.59l-12.4,15.12Z"/><polygon class="cls-3" points="470.88 75.84 472.62 76.83 516.21 0 513.91 0 470.88 75.84"/><path class="cls-3" d="m550,79.05l-7.82-4.22,7.82-14.69v-4.26l-10.63,19.98c-.12.22-.15.48-.08.73l1.9,7.05-11.57,23.15,1.79.89,11.74-23.49c.11-.22.13-.47.07-.71l-1.84-6.83,8.63,4.66v-2.27Z"/><polygon class="cls-3" points="550 323.22 550 316.63 538.64 280.95 536.73 281.55 542.49 299.63 520.54 307.65 513.89 291.81 512.04 292.58 518.66 308.33 506.16 312.9 506.84 314.78 535.45 304.33 542.77 330.54 544.7 330.01 537.33 303.65 543.1 301.54 550 323.22"/><path class="cls-3" d="m544.12,401.72l5.88-2.5v-2.17l-6.57,2.8-38.25,8.4-8.81-11.08,41.91-8.38c.06-.01.13-.03.19-.06l11.54-4.83v-2.17l-12.22,5.11-13.34,2.67-7.75-21.94,33.31-11.66v-2.12l-44.67,15.63-4.39-9.99,17.52-14.35-1.27-1.55-18.1,14.83c-.35.28-.46.76-.28,1.18l4.63,10.55-11.98,4.19-8.65-14.8,30.81-25.29-1.27-1.55-30.76,25.25c-2.23-2.27-4.57-4.79-4.84-5.34.08.16.12.61-.23.96l-1.39-1.44c-.19.19-.32.49-.32.76,0,.43,0,1.09,5.92,7.03l9.34,15.98,3.53,20.82c.03.17.1.32.2.46l15.31,19.25-24.29,15.75-3.82-6.5-5.74-71.36-1.99.16,5.75,71.59c.01.15.06.3.13.43l13.85,23.58h2.32l-9.5-16.16,24.52-15.9,11.17,14.04,1.56-1.24-16.51-20.76,19.54-4.29,4.7,21.49,1.95-.43-4.7-21.49,9.01-1.98,5.71,18.26,1.91-.6-5.66-18.1,4.92-1.08c.06-.01.12-.03.18-.06Zm-52-25.55l22.67-7.93,7.66,21.67-27.08,5.41-3.25-19.15Z"/><path class="cls-3" d="m441.68,398.17l.48,1.94,28.83-7.06c.45-.11.76-.51.76-.97v-5.33c0-.35-.18-.67-.47-.85l-16.07-10-1.06,1.7,15.6,9.71v3.99l-28.07,6.87Z"/><path class="cls-3" d="m460.67,415.33c-.08-.18-.2-.33-.36-.43l-20.55-13.62-1.11,1.67,20.3,13.46,14.78,33.59h2.18l-15.26-34.67Z"/><polygon class="cls-3" points="433.48 406.19 431.76 407.21 457.21 450 459.53 450 433.48 406.19"/><path class="cls-3" d="m403.41,450l-3.57-15.79,31.82-7.32-.45-1.95-31.81,7.32-10.07-44.54c-.04-.17-.12-.33-.25-.46l-3.92-4.2-1.46,1.37,3.73,4,10.01,44.28-14.36,3.3-9.97-17.19-1.73,1,9.66,16.65-16.68,3.84.45,1.95,33.07-7.61,3.47,15.34h2.05Z"/><path class="cls-3" d="m427.5,282.08v17.13c0,.55.45,1,1,1h13.42v-2h-12.42v-16.13h-2Z"/><path class="cls-3" d="m448.36,293.21l-8.61-.89-4.04-9.88-1.85.76,4.27,10.43c.14.34.46.58.82.62l9.2.96.21-1.99Z"/><rect class="cls-3" x="484.89" y="75.52" width="26.18" height="2" transform="translate(231.09 503.85) rotate(-66.75)"/><polygon class="cls-3" points="550 25.98 513.34 80.08 515 81.2 550 29.55 550 25.98"/><path class="cls-3" d="m519.61,60.03l-11.4-5.18-.83,1.82,12.2,5.54c.13.06.27.09.41.09.34,0,.66-.17.85-.47l29.16-46.78v-3.78l-30.39,48.76Z"/><path class="cls-3" d="m527.28,115.92l-14-4.76-.64,1.89,6.35,2.16v23.72h2v-23.04l5.47,1.86,23.54,20.13v-2.63l-22.39-19.14c-.1-.08-.21-.15-.33-.19Z"/><rect class="cls-3" x="511.97" y="119.72" width="2" height="19.21"/><polygon class="cls-3" points="530.83 217.8 528.83 217.64 526.95 241.63 498.14 237.07 497.83 239.05 526.8 243.63 525 266.6 493.31 261.07 492.97 263.04 524.84 268.6 524.12 277.83 526.11 277.98 527.61 258.91 550 261.67 550 259.66 527.76 256.92 529.62 233.15 550 236 550 233.98 529.78 231.16 530.83 217.8"/><rect class="cls-3" x="437.84" y="231.89" width="51.41" height="2" transform="translate(110.02 612.53) rotate(-73.72)"/><path class="cls-1" d="m522.71,434.01c2.69-1.93,12.46-5.89,25.57-10.64.58,1.62,1.16,3.24,1.73,4.87v-22.7c-6.6-16.29-13.8-31.53-20.41-45.52-4.94-10.45-9.56-20.24-13.47-29.4l33.88,2.65v-5.02l-36.04-2.82c-3.52-8.68-6.27-16.75-7.87-24.2,2.73-2.22,6.92-5.67,8.59-7.23.84-.78,3.22-3.01-1.87-16.81l37.19,9.9v-5.17l-55.35-14.74,7.52-37.21c.03-.16.05-.33.05-.5v-11.7c3.62.64,6.79,1.18,9.28,1.47,12.92,1.5,25.89,3.65,38.5,5.78v-8.11c-12.3-2.07-24.92-4.14-37.58-5.61-2.8-.33-6.72-1.02-11.25-1.83,0,0,0,0,0,0l-5.28-17.23v-19.43c0-.47-.13-.94-.39-1.34l-8.63-13.66,3.17-6.33,8.74,3.56c.3.12.62.18.94.18.6,0,1.19-.22,1.66-.63l13.33-11.84,35.3-8.54v-5.14l-35.83,8.67c-2.07-1.78-5.5-4.7-8.81-7.3l9.33-8.94c.41-.39.67-.91.75-1.47l2.19-16.4,32.37,16.05v-5.58l-31.99-15.87-2-26.62c-.06-.74-.44-1.42-1.05-1.85l-8.47-5.99L544.27,0h-5.81l-37.46,63.23c-.66,1.12-.36,2.56.71,3.32l9.4,6.64,1.69,22.49-99.14-49.17L447.71,0h-6.2l-32.51,44.39-23.66-9.22c-.18-.07-.36-.12-.55-.14-4.91-.72-11.76-1.74-19.44-2.91L389.32,0h-3.74l-7.46,10-8.12-10h-3.87l10.14,12.47-14.27,19.12c-21.72-3.35-48.63-7.72-58.23-10.1,1.59-5.64,3.25-13.81,4.67-21.5h-5.09c-1.44,7.77-3.1,15.85-4.63,21l-30.22-9.98c-.46-.15-.96-.07-1.35.21l-5.7,4.16-9.22-15.39h-3.5l10.99,18.34c.22.36.58.62.99.7.42.08.84-.01,1.18-.26l6.41-4.68,29.47,9.74c-.03.07-.06.16-.09.23-3.32,8.3-14.74,25.28-17.92,29.93-6.59-.67-12.6-.99-15.81-.47-4.69.77-21.21,4.73-38.6,9.95-1.36-4.35-4.56-13.42-8.95-18.6-5.51-6.51-13.46-19.5-13.91-28.02-.14-2.68.31-9.11,1.01-16.87h-5.02c-.7,7.8-1.14,14.3-.99,17.13.54,10.29,9.32,24.17,15.09,30.98,3.78,4.46,6.71,12.81,7.98,16.83-15.29,4.76-30.48,10.36-38.2,15.48l-27.1-41.52L142.3,0h-5.27l13.6,40.79c.07.2.16.4.28.58l27.5,42.13c-6.6,5.34-17.11,13.02-27.62,20.3-.63-.86-1.24-1.7-1.83-2.51-9.4-12.97-21.26-30.68-33.81-49.43-11.32-16.91-23.36-34.89-35.22-51.86h-9.78c12.85,18.22,26.02,37.89,38.35,56.31,3.52,5.26,6.99,10.43,10.36,15.45l-2.58,1.54c-4.07-1.1-26.06-6.96-36.52-8.14L29.95,6.68c2.03-2.26,4.1-4.51,6.22-6.68h-10.96c-.97,1.07-1.93,2.13-2.88,3.2-2.75,3.07-5.6,6.24-8.46,9.13-4.52,4.56-8.89,9.27-13.14,14.11l-.73-.76v13.97c1.42-1.73,2.85-3.44,4.3-5.13l22.12,23.15c.21.22.47.37.76.43,1.66.36,40.71,8.9,51.67,9.98,8.62.85,27.18,5.61,34.34,7.5-3.64,2.84-10.89,8.55-18.03,14.47-20.98,17.39-20.46,19.45-20.12,20.81.47,1.87,1.17,2.79,1.85,3.69.94,1.24,2,2.64,3.15,7.77.33,1.48.6,2.87.83,4.15-23.08.3-49.44-.25-55.67-2.04-2.47-.71-12-4.68-25.19-10.37v5.44c12.4,5.33,21.33,9.02,23.81,9.74,3.91,1.13,15.91,1.85,30.17,2.17-4.86,4.77-14.12,13.92-23.3,23.33C3.5,182.59,3.5,185.42,3.5,186.78c0,1.44.24,4.78.71,9.21l-4.21.67v8.1l5.16-.83c1.33,10.01,3.46,22.31,6.32,31.76-3.82,4.02-7.85,8.09-11.48,11.62v4.15c.86-.82,1.76-1.69,2.76-2.66,3.91-3.82,7.67-7.69,9.77-9.88.83,2.37,1.71,4.49,2.65,6.24,1.9,3.55,4.3,8.56,7.08,14.35,8.99,18.73,16.51,33.78,22.12,38.77-4.24,4.93-18.34,21.39-23.82,28.13-2.19,2.7-10.59,8.18-20.56,14.13v5.84c11.27-6.66,21.59-13.31,24.44-16.82,6.03-7.42,22.65-26.76,24.74-29.19,2.26-1.54,15.47-10.51,29.23-20.13,2.58,5.43,10.88,22.7,13.97,26.23.49.56,1.23,1.64,2.1,2.98L0,380.62v11.81c4.21.73,8.54,1.51,12.77,2.74,13.16,3.84,56.13,10.99,81.26,13.14l-74.79,41.69h10.27l73.64-41.04c8.06.5,19.03,1.13,30.54,1.8,7.84.45,16.1.92,23.92,1.39-3.07,11.73-8.48,23.42-14.18,35.71-.33.71-.66,1.43-1,2.15h8.82c5.65-12.2,11.37-24.75,14.47-37.38,8.18.5,15.45.97,20.65,1.36,11.24.85,24.52,1.98,38.57,3.19,6.72.58,13.66,1.17,20.63,1.75l14.21,31.08h5.5l-13.99-30.6c20.48,1.69,40.92,3.23,57.01,3.93,3.48.15,6.52.43,9.32.77.02.06.03.13.06.18.43,1.06.87,2.12,1.31,3.18,1.69,4.06,3.58,8.61,3.94,11.23-4.67,1.83-10.14,6.62-15.46,11.31h4.55c3.79-3.29,7.71-6.49,10.97-8.07v8.07h5v-9.2c8.53-.15,26.03,4.08,32.04,5.61,0,.25-.02.5-.03.75-.01.96,0,1.9.04,2.84h8.01c-.04-.9-.06-1.81-.05-2.73.06-4.72.98-9.06,1.96-13.66.6-2.82,1.21-5.71,1.61-8.7,5.25-1.16,9.9-2.75,16.25-4.93,2.08-.71,4.35-1.5,6.9-2.35,4.88-1.63,10.81-2.18,17.08-2.75,5.85-.53,11.84-1.08,17.24-2.61l2.45,37.73h3.01l-2.51-38.69c1.39-.52,2.72-1.12,3.98-1.82,8.55-4.75,13.15-13.31,17.6-21.58,2.04-3.79,3.97-7.38,6.19-10.45,13.3-18.33,30.07-33.71,48.59-44.64,4.05,9.56,8.86,19.75,14,30.63,7.91,16.73,16.67,35.28,24.19,55.23-6.4,2.31-11.75,4.35-15.96,6.08-11.9,4.89-13.58,6.75-13.02,9.28.34,1.55,2.2,8.03,4.52,15.96h5.21c-2.15-7.34-3.9-13.4-4.58-15.99Zm-15.88-158.39c2.59,6.51,4.45,13.16,4.17,14.98-1.49,1.35-4.58,3.91-7.03,5.91-2.06-2.48-6.05-4.99-13.72-7.52l3.41-16.88,13.17,3.51Zm-95.28,65.09l-23.97-7.67,15.89-49.51c12.61,1.18,24.99,2.49,36.52,3.96,3.23.41,6.27.83,9.15,1.24l-37.59,51.98Zm-46.09,77.22c-3.99.62-8.63,1.03-14.96,1.3-9.71.42-15.79-.57-22.82-1.73-1.72-.28-3.47-.57-5.29-.84.99-7.06,4.01-18.39,5.87-25.37,1.47-5.51,2.73-10.26,3.21-13.02,1.4-8.07-16.54-44.92-23.58-58.97l77.11,5.42-16.37,51.01c-.06.18-.09.36-.11.54l-2.51,28h.01s-.02.08-.02.12l-.55,13.54Zm-145.52-66.84l-24.05-46.3c6.52-8.51,36.6-47.65,43.17-54.23,2.12-2.12,5.93-6.31,10.32-11.27,14.55,17.34,25.29,29.8,27.86,32.26,2.42,2.32,8.73,3.04,56.19,6.43,8.14.58,16.77,1.2,25.66,1.87l-3.96,37.75-51.29-3.6c-.4-.03-.82.04-1.19.21l-82.72,36.87Zm-63.05,28.11l-20.62-46.1c19.06-6.45,47.44-20.86,55.65-25.1l23.44,45.13-58.47,26.07Zm-77.46-105.77c-.57-2.39-1.21-5.19-1.47-6.68-.41-2.38-9.47-49.53-13.08-59.75-1.15-3.26-1.97-7.6-2.59-12.2l30.34-4.85c.31-.05.61-.15.89-.27l26.41,53.95c-5.64,3.92-10.52,7.47-13.55,10.01-4.82,4.04-15.73,11.9-26.96,19.79Zm6.57-141.94c15.93-.28,29.58-1.04,33.29-2.27,4.22-1.41,15.58-8.51,27.88-16.85,6.17,8.28,13.86,18.22,22.39,29.04l-74.57,38.54-8.99-27.6v-20.87Zm137.07-8.5c.86-.06,1.63-.56,2.04-1.33.1-.19.17-.38.22-.58,3.62-1.58,12.04-5.31,20.31-9.26,11.79-5.63,17.42-8.89,20.05-10.94l6.79,23.63-8.98,6.22c-.23.16-.41.38-.52.64l-5.46,12.7c-.31.72-.01,1.56.68,1.92l8.57,4.51-10.86,13.16c-17.96-14.81-35.32-31.99-43.16-39.94l10.33-.73Zm58.46-63.77c9.57,1.07,20.35,2.76,25.85,3.71l71.92,24.3-.7,6.66-68.53,27.27-30.49,3.83-3.96-1.78c-.13-.06-.28-.09-.42-.11l-7.41-25.79c-.3-2.47,6.61-20.92,13.74-38.09Zm86.15,138.79c-24.17-.54-61.97-3.05-81.35-13.06-8.02-4.14-17.28-10.72-26.55-18.14l11.52-13.96c4.35,2.75,10.57,6.56,12.55,7.1.17.05.35.07.52.07.4,0,.8-.12,1.17-.37,2.69-1.81,4.79-15.34,5.86-23.75l18.78-11.55,68.08-27.09-10.57,100.74Zm18.53,23l-.12,2.5,30.91,1.48-16.13,50.28c-12.01-1.1-24.16-2.08-35.96-2.98l6.94-66.16c6.01.08,10.92.04,14.14-.02v14.91h.21Zm59.98,37.28c1.57,7.65,3.17,15.49,4.02,22.52-2.79-.4-5.71-.79-8.78-1.19-11.21-1.44-23.22-2.72-35.47-3.88l15.9-49.55,19.74,4.98c.78,8.55,2.7,17.94,4.58,27.12Zm-59.62,61.54l-26.45-1.86,3.96-37.73c11.25.86,22.82,1.79,34.28,2.83l-11.79,36.76Zm-26.64-47.92c-8.99-.67-17.71-1.3-25.93-1.88-23.24-1.66-47.24-3.38-51.66-4.66-3.03-3.11-13.54-15.37-27.59-32.15,8.56-9.77,17.63-20.34,20.5-23.69l7.89,5.51c.33.23.74.32,1.14.25.4-.07.75-.3.97-.64l2.16-3.22c3.24,2.16,11.81,7.7,15.96,8.56,4.33.9,49.92,5.47,61.32,6.61l-4.75,45.32Zm5.07-48.3c-11.22-1.12-56.88-5.7-61.02-6.56-3.71-.77-12.9-6.72-16.12-8.95-.33-.23-.74-.31-1.13-.24-.39.08-.74.31-.97.64l-2.15,3.21-7.75-5.42c-.63-.44-1.5-.33-2,.25-.18.21-10.94,12.79-21.06,24.34-7.13-8.53-15.09-18.12-23.4-28.21,5.38-5.49,14.4-16.46,16.53-19.07l8.75-10.6c9.67,7.73,19.42,14.64,27.99,19.06,20.74,10.71,59.3,13.41,84.17,13.97l-1.84,17.57Zm-187.68,45.44c-.92-2.89-11.31-35.87-12.12-49.64l14-3.65h27.31c.09,0,.19,0,.28-.03l12-2.25c.37-.07.7-.28.93-.58l3.64-4.93c8.56,10.4,16.76,20.26,24.08,29-4.49,5.07-8.38,9.37-10.49,11.47-6.53,6.53-34.56,42.95-42.58,53.41l-17.04-32.81Zm44.07-63.46l-3.74,5.05-11.28,2.12h-27.36c-.13,0-.25.02-.38.05l-13.44,3.5c.1-1.61.13-3.33.17-5.16.22-11.76.57-29.26,19.46-50.56,11.89,14.83,24.55,30.38,36.57,45Zm53.78-79.29l3.57,1.6c.25.11.53.15.8.12l23.81-2.99-14.13,8.7c-.39.24-.65.64-.7,1.09-1.13,9.13-3.08,19.66-4.43,22.03-2.65-1.15-10.51-6.05-15.23-9.14l-.24.37-7.79-4.1,4.74-11.03,9.6-6.65Zm-70.17.94c6.61,6.81,25.69,26.03,45.81,42.61l-8.73,10.58c-5.7,6.97-12.15,14.5-15.85,18.37-14.9-18.12-30.7-37.58-44.71-55.22l23.48-16.34Zm-23.35,29.39c-20.68,22.94-21.05,41.79-21.28,54.43-.04,1.9-.07,3.7-.17,5.29-.02.25-.02.53-.03.8-4.68,2.98-21.79,13.89-36.05,23.63l-26.12-53.36,76.63-39.61c2.3,2.9,4.64,5.84,7.02,8.82Zm-21.12,66.22c1.85,14.93,9.97,41.19,11.76,46.86l-27.6,14-18.66-38.18c12.56-8.59,27.77-18.38,34.5-22.68Zm12.94,49.63l17.07,32.87c-18.02,9.34-59.84,29.62-69.26,27.85-8.82-1.65-17.66-15.07-22.62-22.77l74.81-37.95Zm200.01,104.54l12.58-39.2,22.41,7.17-36.66,50.7,1.67-18.67Zm84.93-94.97c-.8-7.93-2.62-16.77-4.38-25.36-.04-.2-.08-.39-.12-.59l7.9,7.26c.3.27.66.47,1.05.58l25.96,6.91-3.38,16.72c-6.65-1.84-15.44-3.69-27.03-5.52Zm31.4-16.11l-25.07-6.67-12.5-11.5c-1.89-9.75-3.37-19.25-2.89-26.84.12-1.9.83-3.3,2.23-4.4,7.58-5.96,30.47-2.28,45.65.4v12.34l-7.41,36.67Zm1.18-72.55l4.64,15.14c-17.67-3.06-39.23-5.99-49.01,1.71-3.19,2.51-5.01,6.03-5.27,10.19-.11,1.77-.12,3.61-.06,5.51l-23.18-5.85c-.16-.04-.33-.07-.49-.07l-23.62-1.13v-16.87c0-1.08-.44-2.12-1.22-2.88-.78-.75-1.86-1.18-2.91-1.12-.22,0-7,.22-17.17.09l7.76-73.93,67.17,17.77,15.75,4.97,9.03,9.74c.16.17.36.31.59.39l9.67,3.52,8.22,13.01v19.08c0,.25.04.5.11.73Zm8.22-43.52l-7.77-3.16h0s-1.87-.93-1.87-.93l-5.98,11.93-9.23-3.36-9.05-9.76c-.18-.19-.4-.33-.65-.41l-16.19-5.11-67.69-17.91,3.53-33.62,16.39,3.45c.1.02.21.03.31.03.21,0,.41-.04.61-.13l10.21-4.5c.11-.05.21-.11.3-.18l13.29-10.08c.12-.09.23-.21.32-.34l9.19-13.16,59.34,29.43c-.31,3.46-.83,9.65-1.17,15.87-1.03,19.1.49,21.13,2.73,21.92,1.5.52,7.97,5.64,13.89,10.68l-10.49,9.32Zm11.39-31.32l-9.29,8.9c-1.19-.84-2.25-1.53-3.07-1.95-.96-3.2-.38-17.48.81-31.04l13.85,6.87-2.3,17.22Zm-78.41-57.25l-8.79,12.59-12.96,9.83-9.6,4.23-15.18-3.2,25-34.14,21.54,10.68Zm-130.01-35.03c16.25,4.09,76.24,12.9,81.6,13.69l22.16,8.63-24.88,33.98-72.27-24.41c-.12-.04-.25-.07-.37-.09-.81-.14-11.87-2.05-23.05-3.41,4.37-6.48,13.56-20.5,16.81-28.38Zm-37.43,32.22c2.61-.43,7.74-.16,13.66.42-5,12.04-13.84,34.09-13.6,38.74-1.92,2.73-21.48,12.33-40.38,20.55-3.64-6.32-8.84-16.66-8.95-20.58-.11-4.09,4.34-18.56,7.66-28.24,18.39-5.65,36.82-10.11,41.6-10.89Zm-47.5,12.75c-2.55,7.68-6.89,21.56-6.76,26.51.13,5.1,5.28,15.14,8.26,20.54l-10.62.75c-.31-.28-.65-.5-1.02-.67l-22.03-33.75c6.36-4.31,18.85-9.1,32.16-13.39Zm-36.11,16.48l20.81,31.89-25.44,17.7c-8.69-11.01-16.51-21.11-22.75-29.46,10.48-7.28,20.83-14.87,27.38-20.13ZM6.27,32.24c4.29-4.91,8.71-9.67,13.28-14.29,2.87-2.9,5.67-6,8.37-9.02l47.4,55.66c-13.34-2.02-43.06-8.46-47.06-9.33L6.27,32.24Zm76.69,89.43c-1.28-5.78-2.62-7.53-3.69-8.94-.57-.75-.96-1.27-1.27-2.4,1.16-3.31,20.77-19.86,39.34-34.17l3.19-1.91c8.06,11.96,15.55,22.91,21.94,31.73.55.76,1.12,1.54,1.71,2.34-12,8.13-22.88,14.94-26.47,16.14-2.96.99-17.24,1.7-33.8,1.97-.25-1.45-.56-3.04-.94-4.75Zm-24.78,9.81c4.45.07,9.05.11,13.65.11,3.08,0,6.15-.02,9.17-.05v21.2c0,.26.04.52.12.77l9.34,28.67-29.05,4.65c-.27-2.93-.48-5.78-.68-8.36-.26-3.42-.48-6.37-.75-8.65-.91-7.7-12.53-20.48-16.09-24.23,4.69-4.69,9.51-9.45,14.28-14.1ZM6.5,186.83c.47-3.01,16.48-20.21,35.29-39.12,4.81,5.06,14.51,16.38,15.23,22.46.26,2.22.48,5.14.74,8.52.21,2.73.43,5.66.7,8.61l-51.26,8.2c-.45-4.21-.68-7.36-.68-8.68Zm39.94,109.37c-5.43-4.54-15.34-25.18-21.48-37.97-2.8-5.83-5.21-10.86-7.14-14.47-4.56-8.52-7.86-26.64-9.68-40.3l51.18-8.19c.64,4.75,1.49,9.23,2.73,12.72,3.55,10.05,12.54,56.89,12.95,59.25.32,1.84,1.16,5.42,1.78,8.02-14.11,9.88-28.01,19.33-30.35,20.92Zm34.46-17.69c11.79-8.26,23.52-16.69,28.71-21.04,3.03-2.53,8.08-6.19,13.92-10.23l18.48,37.82-44.99,22.82c-.99-1.51-1.77-2.66-2.39-3.36-2.61-2.98-10.34-18.81-13.73-26ZM.94,384.47c-.29-.05-.58-.1-.87-.15l96.03-72.32c5.52,8.57,14.52,22.25,24.62,24.14.49.09,1.04.14,1.66.14,2.68,0,6.51-.84,11.01-2.24l20.75,46.38-46.64,20.79c-3.23-.2-6.13-.38-8.56-.54-23.28-1.55-70.62-9.3-83.93-13.18-4.8-1.4-9.51-2.22-14.07-3.02Zm224.69,24.73c-14.08-1.2-27.38-2.34-38.66-3.19-11.65-.88-33.53-2.13-52.83-3.24-5.48-.31-10.83-.62-15.8-.91l99.22-44.23,24.21,52.95c-5.45-.46-10.86-.92-16.13-1.37Zm21.85,1.85l-25.36-55.46,80.39-35.84c10.86,21.54,24.93,52.44,24.02,57.67-.44,2.54-1.68,7.2-3.12,12.59-2.87,10.77-5.15,19.7-5.97,26.01-2.65-.3-5.52-.55-8.79-.69-17.13-.74-39.3-2.45-61.17-4.28Zm114.66,20.9c-.77,3.65-1.56,7.39-1.93,11.41-6.57-1.66-23.5-5.7-32.37-5.54-.51-3.3-2.32-7.68-4.23-12.28-.09-.21-.17-.42-.26-.63,1.02.16,2.02.33,3.02.49,6.03.99,11.77,1.94,19.72,1.94,1.5,0,3.08-.03,4.76-.11,4.91-.22,8.92-.52,12.42-.94-.32,1.86-.72,3.74-1.12,5.66Zm69.94-29.45c-5.37,2.98-13.32,3.71-21,4.41-6.45.59-13.13,1.2-18.89,3.13-2.58.86-4.87,1.65-6.96,2.37-5.97,2.05-10.2,3.51-14.73,4.55l.47-11.61,42.02-58.1,37.26,30.21c-1.3,2.19-2.53,4.44-3.72,6.65-4.08,7.59-7.94,14.77-14.44,18.38Zm21.21-29.74c-.11.15-.21.32-.32.48l-37.04-30.04,38.79-53.64c14.44,2.22,24.08,4.37,30.51,6.25-.51,5.58-1.5,15.91-2.2,20.47-.77,4.97.95,16.96,1.93,23.08-11.79,9.52-22.51,20.8-31.66,33.41Zm34.37-35.54c-.97-6.26-2.31-16.34-1.67-20.49.7-4.53,1.64-14.3,2.17-20.01,8.86,2.92,9.83,5.02,9.94,5.42,1.5,7.28,4.02,15,7.22,23.19-6.08,3.52-11.98,7.5-17.65,11.88Z"/></svg>