<svg xmlns="http://www.w3.org/2000/svg" xmlns:xlink="http://www.w3.org/1999/xlink" viewBox="0 0 225.3 245.2">
    <defs>
        <style>
            .cls-1,
            .cls-10,
            .cls-12,
            .cls-4,
            .cls-5,
            .cls-6,
            .cls-8 {
                fill: none;
            }

            .cls-2 {
                fill: #dc2626;
            }

            .cls-3 {
                stroke: #dc2626;
            }

            .cls-10,
            .cls-11,
            .cls-12,
            .cls-13,
            .cls-3,
            .cls-4,
            .cls-5,
            .cls-6,
            .cls-8 {
                stroke-miterlimit: 10;
            }

            .cls-4 {
                stroke: #dc2626;
                stroke-width: 0.25px;
            }

            .cls-5 {
                stroke: #dc2626;
                stroke-width: 0.5px;
            }

            .cls-6 {
                stroke: #4a154b;
            }

            .cls-6,
            .cls-8 {
                stroke-width: 0.75px;
            }

            .cls-7 {
                clip-path: url(#clip-path);
            }

            .cls-11,
            .cls-12,
            .cls-13,
            .cls-8 {
                stroke: #eb8131;
            }

            .cls-11,
            .cls-9 {
                fill: #dc2626;
            }

            .cls-10 {
                stroke: #000;
            }

            .cls-13 {
                fill: #dc2626;
            }

            .cls-14 {
                isolation: isolate;
            }
        </style>
        <clipPath id="clip-path" transform="translate(4.84)">
            <polygon class="cls-1"
                points="10.11 64.47 10.11 173.51 108.05 227.87 205.99 173.51 205.99 64.47 108.05 9.94 10.11 64.47" />
        </clipPath>
    </defs>
    <g id="Layer_2" data-name="Layer 2">
        <g id="Layer_1-2" data-name="Layer 1">
            <g id="Layer_2-2" data-name="Layer 2">
                <g id="Techy">
                    <g id="Background">
                        <polygon class="cls-2"
                            points="220.78 178.31 220.78 59.49 112.89 0 4.84 59.49 4.84 178.31 112.89 237.81 220.78 178.31" />
                    </g>
                    <polygon class="cls-3"
                        points="112.89 9.94 14.96 63.97 14.96 135.39 14.96 143.84 14.96 173.51 112.89 227.87 210.84 173.51 210.84 143.84 210.84 134.9 210.84 63.97 112.89 9.94" />
                    <line class="cls-4" x1="138.08" y1="23.2" x2="150.19" y2="30.16" />
                    <line class="cls-5" x1="125.16" y1="85.68" x2="137.08" y2="92.64" />
                    <polyline class="cls-5" points="112.72 92.64 125.16 85.68 125.16 71.76" />
                    <line class="cls-5" x1="137.91" y1="65.46" x2="149.85" y2="72.25" />
                    <line class="cls-5" x1="62.68" y1="65.46" x2="74.62" y2="72.25" />
                    <line class="cls-5" x1="37.83" y1="148.15" x2="49.75" y2="155.11" />
                    <polyline class="cls-5" points="25.39 155.11 37.83 148.15 37.83 134.23" />
                    <line class="cls-5" x1="25.55" y1="168.54" x2="37.5" y2="175.5" />
                    <polyline class="cls-5" points="15.46 174.17 25.55 168.54 25.55 154.62" />
                    <line class="cls-5" x1="87.87" y1="148.15" x2="99.8" y2="155.11" />
                    <polyline class="cls-5" points="75.28 155.11 87.88 148.15 87.88 134.23" />
                    <line class="cls-5" x1="112.73" y1="189.42" x2="124.66" y2="196.21" />
                    <polyline class="cls-5" points="100.3 196.38 112.72 189.42 112.72 175.5" />
                    <line class="cls-5" x1="99.97" y1="210.13" x2="111.9" y2="216.93" />
                    <polyline class="cls-5" points="90.53 215.44 99.97 210.13 99.97 196.21" />
                    <line class="cls-5" x1="125.48" y1="210.13" x2="134.94" y2="215.6" />
                    <polyline class="cls-5" points="113.06 217.09 125.48 210.13 125.48 196.21" />
                    <line class="cls-5" x1="150.35" y1="206.98" x2="150.35" y2="196.54" />
                    <line class="cls-5" x1="163.11" y1="189.42" x2="172.55" y2="194.72" />
                    <polyline class="cls-5" points="150.68 196.38 163.1 189.42 163.1 175.5" />
                    <line class="cls-5" x1="174.88" y1="169.2" x2="186.8" y2="175.99" />
                    <polyline class="cls-5" points="162.28 176.16 174.88 169.2 174.88 155.28" />
                    <line class="cls-5" x1="137.58" y1="148.15" x2="149.69" y2="155.11" />
                    <polyline class="cls-5" points="125.16 155.11 137.59 148.15 137.59 134.23" />
                    <polyline class="cls-5" points="125.48 72.42 137.91 65.46 137.91 51.54" />
                    <line class="cls-5" x1="200.22" y1="85.84" x2="210.83" y2="92.03" />
                    <polyline class="cls-5" points="187.79 92.8 200.22 85.84 200.22 71.92" />
                    <polyline class="cls-5" points="50.09 72.42 62.69 65.46 62.69 51.54" />
                    <line class="cls-5" x1="14.46" y1="107.55" x2="25.22" y2="113.68" />
                    <line class="cls-5" x1="50.41" y1="44.58" x2="62.34" y2="51.37" />
                    <line class="cls-5" x1="125.66" y1="30.33" x2="138.08" y2="23.2" />
                    <line class="cls-5" x1="187.47" y1="148.15" x2="199.39" y2="155.11" />
                    <polyline class="cls-5" points="175.03 155.11 187.47 148.15 187.47 134.23" />
                    <line class="cls-5" x1="200.22" y1="169.03" x2="209.35" y2="174.34" />
                    <polyline class="cls-5" points="187.79 176 200.22 169.03 200.22 155.11" />
                    <line class="cls-5" x1="200.07" y1="155.11" x2="210.83" y2="149.15" />
                    <line class="cls-5" x1="14.46" y1="148.82" x2="25.22" y2="154.95" />
                    <line class="cls-5" x1="50.41" y1="168.54" x2="62.34" y2="175.5" />
                    <polyline class="cls-5" points="37.98 175.5 50.41 168.54 50.41 154.62" />
                    <line class="cls-5" x1="63.34" y1="190.08" x2="75.27" y2="197.04" />
                    <polyline class="cls-5" points="53.73 195.55 63.34 190.08 63.34 176.16" />
                    <line class="cls-5" x1="75.27" y1="206.98" x2="75.27" y2="196.54" />
                    <line class="cls-5" x1="37.83" y1="186.6" x2="37.83" y2="175.99" />
                    <line class="cls-6" x1="37.65" y1="65.46" x2="25.72" y2="58.5" />
                    <polyline class="cls-6" points="50.09 58.5 37.66 65.46 37.66 79.38" />
                    <polyline class="cls-6" points="100.3 16.9 87.88 23.86 87.88 37.78" />
                    <line class="cls-6" x1="149.85" y1="44.74" x2="137.91" y2="37.95" />
                    <polyline class="cls-6" points="162.28 37.78 149.84 44.74 149.84 58.66" />
                    <g class="cls-7">
                        <polygon class="cls-8"
                            points="175.03 141.19 175.03 154.95 187.47 161.91 200.06 154.95 200.06 141.19 187.47 134.23 175.03 141.19" />
                        <polygon class="cls-8"
                            points="187.47 161.91 187.47 175.66 200.06 182.62 212.5 175.66 212.5 161.91 200.06 154.95 187.47 161.91" />
                        <polygon class="cls-8"
                            points="125.16 16.74 125.16 30.49 137.59 37.45 150.19 30.49 150.19 16.74 137.59 9.78 125.16 16.74" />
                        <polygon class="cls-8"
                            points="200.06 140.86 200.06 154.78 212.5 161.74 224.93 154.78 224.93 140.86 212.5 133.9 200.06 140.86" />
                        <polygon class="cls-9"
                            points="200.06 58.5 200.06 72.25 212.5 79.21 224.93 72.25 224.93 58.5 212.5 51.54 200.06 58.5" />
                        <polygon class="cls-8"
                            points="187.47 79.38 187.47 93.14 200.06 100.09 212.5 93.14 212.5 79.38 200.06 72.42 187.47 79.38" />
                        <polygon class="cls-9"
                            points="200.06 100.09 200.06 114.02 212.5 120.81 224.93 114.02 224.93 100.09 212.5 93.14 200.06 100.09" />
                        <polygon class="cls-9"
                            points="137.59 37.62 137.59 51.37 150.19 58.33 162.62 51.37 162.62 37.62 150.19 30.66 137.59 37.62" />
                        <polygon class="cls-8"
                            points="112.39 79.05 112.39 92.8 125 99.76 137.43 92.8 137.43 79.05 125 72.09 112.39 79.05" />
                        <polygon class="cls-8"
                            points="125.16 58.5 125.16 72.25 137.59 79.21 150.01 72.25 150.01 58.5 137.59 51.54 125.16 58.5" />
                        <polygon class="cls-8"
                            points="0.38 100.09 0.38 114.02 12.79 120.81 25.23 114.02 25.23 100.09 12.79 93.14 0.38 100.09" />
                        <polygon class="cls-8"
                            points="150.01 141.19 150.01 154.95 162.62 161.91 175.03 154.95 175.03 141.19 162.62 134.23 150.01 141.19" />
                        <polygon class="cls-8"
                            points="162.62 161.91 162.62 175.66 175.03 182.62 187.47 175.66 187.47 161.91 175.03 154.95 162.62 161.91" />
                        <polygon class="cls-8"
                            points="175.03 182.62 175.03 196.38 187.47 203.34 199.9 196.38 199.9 182.62 187.47 175.66 175.03 182.62" />
                        <polygon class="cls-8"
                            points="125.16 141.19 125.16 154.95 137.59 161.91 150.01 154.95 150.01 141.19 137.59 134.23 125.16 141.19" />
                        <polygon class="cls-8"
                            points="137.59 161.91 137.59 175.66 150.01 182.62 162.62 175.66 162.62 161.91 150.01 154.95 137.59 161.91" />
                        <polygon class="cls-8"
                            points="150.01 182.62 150.01 196.38 162.62 203.34 175.03 196.38 175.03 182.62 162.62 175.66 150.01 182.62" />
                        <polygon class="cls-8"
                            points="100.14 141.19 100.14 154.95 112.72 161.91 125.16 154.95 125.16 141.19 112.72 134.23 100.14 141.19" />
                        <polygon class="cls-8"
                            points="112.72 161.91 112.72 175.66 125.16 182.62 137.59 175.66 137.59 161.91 125.16 154.95 112.72 161.91" />
                        <polygon class="cls-8"
                            points="125.16 182.62 125.16 196.38 137.59 203.34 150.01 196.38 150.01 182.62 137.59 175.66 125.16 182.62" />
                        <polygon class="cls-8"
                            points="75.28 141.19 75.28 154.95 87.7 161.91 100.14 154.95 100.14 141.19 87.7 134.23 75.28 141.19" />
                        <polygon class="cls-8"
                            points="87.7 161.91 87.7 175.66 100.14 182.62 112.56 175.66 112.56 161.91 100.14 154.95 87.7 161.91" />
                        <polygon class="cls-8"
                            points="100.14 182.62 100.14 196.38 112.56 203.34 125.16 196.38 125.16 182.62 112.56 175.66 100.14 182.62" />
                        <polygon class="cls-8"
                            points="112.56 203.34 112.56 217.09 125.16 224.05 137.59 217.09 137.59 203.34 125.16 196.38 112.56 203.34" />
                        <polygon class="cls-8"
                            points="50.26 141.19 50.26 154.95 62.69 161.91 75.28 154.95 75.28 141.19 62.69 134.23 50.26 141.19" />
                        <polygon class="cls-8"
                            points="62.69 161.91 62.69 175.66 75.28 182.62 87.7 175.66 87.7 161.91 75.28 154.95 62.69 161.91" />
                        <polygon class="cls-8"
                            points="75.28 182.62 75.28 196.38 87.7 203.34 100.14 196.38 100.14 182.62 87.7 175.66 75.28 182.62" />
                        <polygon class="cls-8"
                            points="87.7 203.34 87.7 217.09 100.14 224.05 112.56 217.09 112.56 203.34 100.14 196.38 87.7 203.34" />
                        <polygon class="cls-8"
                            points="100.14 223.89 100.14 237.81 112.56 244.77 125 237.81 125 223.89 112.56 217.09 100.14 223.89" />
                        <polygon class="cls-8"
                            points="25.23 141.19 25.23 154.95 37.83 161.91 50.26 154.95 50.26 141.19 37.83 134.23 25.23 141.19" />
                        <polygon class="cls-8"
                            points="37.83 161.91 37.83 175.66 50.26 182.62 62.69 175.66 62.69 161.91 50.26 154.95 37.83 161.91" />
                        <polygon class="cls-8"
                            points="50.26 182.62 50.26 196.38 62.69 203.34 75.11 196.38 75.11 182.62 62.69 175.66 50.26 182.62" />
                        <polygon class="cls-8"
                            points="62.69 203.34 62.69 217.09 75.11 224.05 87.7 217.09 87.7 203.34 75.11 196.38 62.69 203.34" />
                        <polygon class="cls-8"
                            points="12.79 161.91 12.79 175.66 25.23 182.62 37.83 175.66 37.83 161.91 25.23 154.95 12.79 161.91" />
                        <polygon class="cls-9"
                            points="75.28 16.9 75.28 30.82 87.7 37.78 100.14 30.82 100.14 16.9 87.7 9.94 75.28 16.9" />
                        <polygon class="cls-8"
                            points="0.38 141.19 0.38 154.95 12.79 161.91 25.23 154.95 25.23 141.19 12.79 134.23 0.38 141.19" />
                        <polygon class="cls-8"
                            points="37.98 37.62 37.98 51.37 50.41 58.33 62.84 51.37 62.84 37.62 50.41 30.66 37.98 37.62" />
                        <polygon class="cls-9"
                            points="25.39 58.5 25.39 72.25 37.98 79.21 50.41 72.25 50.41 58.5 37.98 51.54 25.39 58.5" />
                        <polygon class="cls-8"
                            points="50.26 58.5 50.26 72.25 62.69 79.21 75.28 72.25 75.28 58.5 62.69 51.54 50.26 58.5" />
                        <polygon class="cls-8"
                            points="25.23 182.62 25.23 196.38 37.83 203.34 50.26 196.38 50.26 182.62 37.83 175.66 25.23 182.62" />
                    </g>
                    <polygon class="cls-10"
                        points="14.96 64.47 14.96 173.51 112.89 227.87 210.84 173.51 210.84 64.47 112.89 9.94 14.96 64.47" />
                    <polygon class="cls-11"
                        points="50.41 141.19 50.41 155.11 62.84 162.07 75.28 155.11 75.28 141.19 62.84 134.23 50.41 141.19" />
                    <polygon class="cls-11"
                        points="62.84 161.91 62.84 175.83 75.28 182.79 87.88 175.83 87.88 161.91 75.28 154.95 62.84 161.91" />
                    <polygon class="cls-11"
                        points="75.28 182.46 75.28 196.54 87.88 203.34 100.3 196.54 100.3 182.46 87.88 175.5 75.28 182.46" />
                    <polygon class="cls-11"
                        points="87.88 161.91 87.88 175.83 100.3 182.79 112.72 175.83 112.72 161.91 100.3 154.95 87.88 161.91" />
                    <polygon class="cls-11"
                        points="100.3 141.19 100.3 155.11 112.72 162.07 125.16 155.11 125.16 141.19 112.72 134.23 100.3 141.19" />
                    <polygon class="cls-11"
                        points="112.72 161.91 112.72 175.83 125.16 182.79 137.59 175.83 137.59 161.91 125.16 154.95 112.72 161.91" />
                    <polygon class="cls-11"
                        points="125.16 182.46 125.16 196.54 137.59 203.34 150.19 196.54 150.19 182.46 137.59 175.5 125.16 182.46" />
                    <polygon class="cls-11"
                        points="137.59 161.91 137.59 175.83 150.19 182.79 162.62 175.83 162.62 161.91 150.19 154.95 137.59 161.91" />
                    <polygon class="cls-11"
                        points="150.19 141.19 150.19 155.11 162.62 162.07 175.03 155.11 175.03 141.19 162.62 134.23 150.19 141.19" />
                    <line class="cls-12" x1="162.61" y1="148.15" x2="150.67" y2="141.36" />
                    <polyline class="cls-13" points="175.03 141.19 162.62 148.15 162.62 162.07" />
                    <line class="cls-12" x1="149.85" y1="169.03" x2="137.91" y2="162.24" />
                    <polyline class="cls-13" points="162.28 162.07 149.84 169.03 150.19 182.46" />
                    <line class="cls-12" x1="137.58" y1="190.08" x2="125.16" y2="182.79" />
                    <polyline class="cls-13" points="150.19 182.46 137.59 189.42 137.59 203.34" />
                    <line class="cls-12" x1="125" y1="169.03" x2="113.05" y2="162.24" />
                    <polyline class="cls-13" points="137.43 162.07 125 169.03 125 182.53" />
                    <line class="cls-12" x1="112.4" y1="148.15" x2="100.47" y2="141.36" />
                    <polyline class="cls-13" points="125 141.19 112.47 148.13 112.72 161.91" />
                    <line class="cls-12" x1="100.3" y1="169.03" x2="88.37" y2="162.24" />
                    <polyline class="cls-13" points="112.72 162.07 100.3 168.51 100.3 182.79" />
                    <line class="cls-12" x1="88.04" y1="190.08" x2="75.36" y2="183.12" />
                    <polyline class="cls-13" points="100.47 183.12 88.03 190.08 87.88 203.34" />
                    <line class="cls-12" x1="75.11" y1="169.03" x2="63.18" y2="162.24" />
                    <polyline class="cls-13" points="87.88 161.91 74.94 168.53 74.94 182.6" />
                    <line class="cls-12" x1="62.68" y1="148.15" x2="50.59" y2="141.36" />
                    <polyline class="cls-13" points="75.28 141.03 62.84 147.99 62.84 161.91" />
                    <g id="Text">
                        <g class="cls-14">
                            <path class="cls-2"
                                d="M66.76,123.15l-3.67-6.8H42.37l5-9.44H58.07l-7.55-14.2L34.35,123.15H21.24L43.8,82.24A5.79,5.79,0,0,1,49.1,79h2.71a5.77,5.77,0,0,1,5.3,3.26l22.56,40.91Z"
                                transform="translate(4.84)" />
                        </g>
                        <g class="cls-14">
                            <path class="cls-2"
                                d="M101.28,123.15a26.5,26.5,0,0,1-9.38-1.6,21.76,21.76,0,0,1-7.37-4.48,20.44,20.44,0,0,1-4.86-7,23.87,23.87,0,0,1,0-18,20.9,20.9,0,0,1,4.86-7,21.38,21.38,0,0,1,7.37-4.52,26.73,26.73,0,0,1,9.38-1.6h21.6V90.33H100.46a11.51,11.51,0,0,0-4.28.78,9.85,9.85,0,0,0-3.4,2.21,10.22,10.22,0,0,0-2.24,3.4,11.92,11.92,0,0,0,0,8.69,9.89,9.89,0,0,0,2.24,3.37,10.06,10.06,0,0,0,3.4,2.17,11.51,11.51,0,0,0,4.28.78h22.42v11.42Z"
                                transform="translate(4.84)" />
                            <path class="cls-2"
                                d="M181.59,123.15l-6.52-28.4-7.68,24.19a5.3,5.3,0,0,1-5.57,4.21h-3.6a5.3,5.3,0,0,1-5.57-4.21L145,94.27l-6.53,28.88H126.69l9-39.14a5.34,5.34,0,0,1,5.77-5h5A5.43,5.43,0,0,1,152,83.26l8,26.44L168,83.26Q169.29,79,173.57,79h5a6.09,6.09,0,0,1,3.74,1.12A6.4,6.4,0,0,1,184.38,84l9,39.14Z"
                                transform="translate(4.84)" />
                        </g>
                    </g>
                </g>
            </g>
        </g>
    </g>
</svg>