<?xml version="1.0" encoding="UTF-8"?><svg id="Layer_2" xmlns="http://www.w3.org/2000/svg" xmlns:xlink="http://www.w3.org/1999/xlink" viewBox="0 0 129.2 123.2"><defs><style>.cls-1{fill:url(#linear-gradient);}.cls-2{fill:#ffa98d;}.cls-3{fill:#ff6758;}.cls-4{fill:none;stroke:#963b44;stroke-dasharray:0 0 0 5;stroke-linecap:round;stroke-width:2px;}</style><linearGradient id="linear-gradient" x1="62.6" y1="-231.02" x2="62.6" y2="-328.23" gradientTransform="translate(0 -220.02) scale(1 -1)" gradientUnits="userSpaceOnUse"><stop offset=".53" stop-color="#321815"/><stop offset="1" stop-color="#4b2524"/></linearGradient></defs><g id="Layer_3"><path class="cls-3" d="m100.6,123.2c-1.79,0-3.55-.29-5.25-.85l-3.75-1.25-3.75,1.25c-1.7.57-3.46.85-5.25.85-3.51,0-6.87-1.09-9.71-3.14-3.88-2.79-6.35-7.14-6.81-11.86H16.6c-9.15,0-16.6-7.45-16.6-16.6V16.6C0,7.45,7.45,0,16.6,0h96c9.15,0,16.6,7.45,16.6,16.6v75c0,7.51-5.01,13.96-12.03,15.96-.29,4.96-2.81,9.59-6.87,12.51-2.83,2.04-6.18,3.13-9.7,3.13h0Z"/><path class="cls-2" d="m98.6,118.2c-1.47,0-2.91-.24-4.3-.7l-4.7-1.57-4.7,1.57c-1.39.46-2.84.7-4.3.7-2.88,0-5.63-.89-7.96-2.57-3.53-2.54-5.64-6.67-5.64-11.03v-1.4H14.6c-7.5,0-13.6-6.1-13.6-13.6V14.6C1,7.1,7.1,1,14.6,1h96c7.5,0,13.6,6.1,13.6,13.6v75c0,6.96-5.25,12.71-12,13.51v1.49c0,4.36-2.11,8.49-5.66,11.04-2.31,1.68-5.06,2.56-7.95,2.56h.01Z"/><path class="cls-4" d="m98.6,115.2c-1.14,0-2.27-.18-3.35-.54l-5.65-1.88-5.65,1.88c-1.08.36-2.21.54-3.35.54-2.24,0-4.39-.69-6.2-2-2.75-1.98-4.4-5.2-4.4-8.6v-4.4H14.6c-5.84,0-10.6-4.76-10.6-10.6V14.6c0-5.84,4.76-10.6,10.6-10.6h96c5.84,0,10.6,4.76,10.6,10.6v75c0,5.84-4.76,10.6-10.6,10.6h-1.4v4.4c0,3.4-1.65,6.62-4.41,8.6-1.8,1.3-3.95,2-6.19,2h0Z"/><path class="cls-1" d="m25.85,29.45c1.99,0,3.6-1.61,3.6-3.6s-1.61-3.6-3.6-3.6-3.6,1.61-3.6,3.6,1.61,3.6,3.6,3.6Zm10.5,0c1.99,0,3.6-1.61,3.6-3.6s-1.61-3.6-3.6-3.6-3.6,1.61-3.6,3.6,1.61,3.6,3.6,3.6Zm10.5,0c1.99,0,3.6-1.61,3.6-3.6s-1.61-3.6-3.6-3.6-3.6,1.61-3.6,3.6,1.61,3.6,3.6,3.6Zm10.5,0c1.99,0,3.6-1.61,3.6-3.6s-1.61-3.6-3.6-3.6-3.6,1.61-3.6,3.6,1.61,3.6,3.6,3.6Zm10.5,0c1.99,0,3.6-1.61,3.6-3.6s-1.61-3.6-3.6-3.6-3.6,1.61-3.6,3.6,1.61,3.6,3.6,3.6Zm10.5,0c1.99,0,3.6-1.61,3.6-3.6s-1.61-3.6-3.6-3.6-3.6,1.61-3.6,3.6,1.61,3.6,3.6,3.6Zm10.5,0c1.99,0,3.6-1.61,3.6-3.6s-1.61-3.6-3.6-3.6-3.6,1.61-3.6,3.6,1.61,3.6,3.6,3.6Zm10.5,0c1.99,0,3.6-1.61,3.6-3.6s-1.61-3.6-3.6-3.6-3.6,1.61-3.6,3.6,1.61,3.6,3.6,3.6Zm0,10.5c1.99,0,3.6-1.61,3.6-3.6s-1.61-3.6-3.6-3.6-3.6,1.61-3.6,3.6,1.61,3.6,3.6,3.6Zm0,10.5c1.99,0,3.6-1.61,3.6-3.6s-1.61-3.6-3.6-3.6-3.6,1.61-3.6,3.6,1.61,3.6,3.6,3.6Zm-31.5,24.3c-1.99,0-3.6,1.61-3.6,3.6s1.61,3.6,3.6,3.6,3.6-1.61,3.6-3.6-1.61-3.6-3.6-3.6Zm-10.5,0c-1.99,0-3.6,1.61-3.6,3.6s1.61,3.6,3.6,3.6,3.6-1.61,3.6-3.6-1.61-3.6-3.6-3.6Zm-10.5,0c-1.99,0-3.6,1.61-3.6,3.6s1.61,3.6,3.6,3.6,3.6-1.61,3.6-3.6-1.61-3.6-3.6-3.6Zm-10.5,7.2c1.99,0,3.6-1.61,3.6-3.6s-1.61-3.6-3.6-3.6-3.6,1.61-3.6,3.6,1.61,3.6,3.6,3.6Zm-10.5,0c1.99,0,3.6-1.61,3.6-3.6s-1.61-3.6-3.6-3.6-3.6,1.61-3.6,3.6,1.61,3.6,3.6,3.6Zm0-10.5c1.99,0,3.6-1.61,3.6-3.6s-1.61-3.6-3.6-3.6-3.6,1.61-3.6,3.6,1.61,3.6,3.6,3.6Zm0-10.5c1.99,0,3.6-1.61,3.6-3.6s-1.61-3.6-3.6-3.6-3.6,1.61-3.6,3.6,1.61,3.6,3.6,3.6Zm0-10.5c1.99,0,3.6-1.61,3.6-3.6s-1.61-3.6-3.6-3.6-3.6,1.61-3.6,3.6,1.61,3.6,3.6,3.6Zm0-10.5c1.99,0,3.6-1.61,3.6-3.6s-1.61-3.6-3.6-3.6-3.6,1.61-3.6,3.6,1.61,3.6,3.6,3.6Zm45.15,21.15c0-1.32-1.08-2.4-2.4-2.4h-27c-1.32,0-2.4,1.08-2.4,2.4s1.08,2.4,2.4,2.4h27c1.32,0,2.4-1.08,2.4-2.4ZM110.6,11H14.6c-1.99,0-3.6,1.61-3.6,3.6v75c0,1.99,1.61,3.6,3.6,3.6h62.4v11.4c0,1.16.56,2.24,1.5,2.92.94.68,2.14.86,3.24.5,0,0,6.12-2.04,7.86-2.62,1.74.58,7.86,2.62,7.86,2.62,1.1.37,2.31.18,3.24-.5.94-.68,1.5-1.76,1.5-2.92v-11.4h8.4c1.99,0,3.6-1.61,3.6-3.6V14.6c0-1.99-1.61-3.6-3.6-3.6h0Zm-15.6,78.6v10c-2.12-.71-4.26-1.42-4.26-1.42h0c-.23-.08-.37-.13-.37-.13-.49-.16-1.03-.16-1.52,0,0,0-.14.05-.37.13h0s-2.14.71-4.26,1.42v-11.61c1.69.62,3.5,1.01,5.4,1.01s3.71-.39,5.4-1.01v1.61h-.02Zm-5.4-5.4c-6.12,0-11.1-4.98-11.1-11.1s4.98-11.1,11.1-11.1,11.1,4.98,11.1,11.1-4.98,11.1-11.1,11.1Zm17.4,1.8h-7.2v-.8c3.46-2.92,5.7-7.23,5.7-12.1s-2.31-9.29-5.84-12.21c1.84-.16,3.29-1.66,3.29-3.54,0-1.99-1.61-3.6-3.6-3.6s-3.6,1.61-3.6,3.6c0,.43.11.83.25,1.22-1.96-.86-4.12-1.37-6.4-1.37-8.77,0-15.9,7.13-15.9,15.9,0,4.87,2.24,9.18,5.7,12.1v.8H18.2V18.2h88.8v67.8h0ZM39.2,40.1c0,1.32,1.08,2.4,2.4,2.4h43.5c1.32,0,2.4-1.08,2.4-2.4s-1.08-2.4-2.4-2.4h-43.5c-1.32,0-2.4,1.08-2.4,2.4Zm41.4,8.1h-39c-1.32,0-2.4,1.08-2.4,2.4s1.08,2.4,2.4,2.4h39c1.32,0,2.4-1.08,2.4-2.4s-1.08-2.4-2.4-2.4Z"/></g></svg>