<?xml version="1.0" encoding="UTF-8"?><svg id="Layer_2" xmlns="http://www.w3.org/2000/svg" xmlns:xlink="http://www.w3.org/1999/xlink" viewBox="0 0 132.01 118.25"><defs><style>.cls-1{fill:url(#linear-gradient);}.cls-2{fill:#ffa98d;}.cls-3{fill:#ff6758;}.cls-4{fill:none;stroke:#963b44;stroke-dasharray:0 0 0 5;stroke-linecap:round;stroke-width:2px;}</style><linearGradient id="linear-gradient" x1="63.99" y1="-231" x2="63.99" y2="-323.22" gradientTransform="translate(0 -220) scale(1 -1)" gradientUnits="userSpaceOnUse"><stop offset=".53" stop-color="#321815"/><stop offset="1" stop-color="#4b2524"/></linearGradient></defs><g id="Layer_3"><path class="cls-3" d="m53.82,118.23c-5.6,0-10.99-.61-16.02-1.82-9.54-2.29-16.18-6.39-20.3-12.53-3.74-5.57-3.71-11.19-3.7-14.55v-11.46c-2.87-1.58-5.47-3.61-7.59-5.95C-.72,64.24-.16,53.87.18,47.68c.06-1.19.12-2.31.12-3.13v-13.71c0-.31,0-.62,0-.94v-.18c-.07-2.79-.17-7.45,2.04-12.16C6.01,9.71,13.68,4.38,25.12,1.73c4.96-1.15,10.16-1.73,15.44-1.73,4.89,0,9.74.5,14.43,1.49,11.57,2.43,19.2,7.32,23.33,14.93.46.84.85,1.71,1.2,2.61,3.69-.66,7.55-.92,13.09-.92,16.54,0,35.47,6.09,38.98,23.17.54,2.72.44,5.09.37,6.67v.12c-.02.3-.03.54-.03.78v26.19c0,12.68-9.58,21.91-26.28,25.32-4.48.91-9.11,1.38-13.75,1.39-1.37,2.77-3.3,5.18-5.86,7.33-7.24,6.07-16.19,7.79-22.29,8.55-3.31.41-6.63.62-9.89.62h0l-.04-.02Z"/><path class="cls-2" d="m51.82,113.23c-5.36,0-10.52-.59-15.32-1.74-8.78-2.11-14.83-5.8-18.51-11.28-3.22-4.81-3.21-9.66-3.19-12.87v-13.31c-3.21-1.51-6.08-3.6-8.37-6.13C.34,61.15.84,51.94,1.17,45.84c.07-1.23.13-2.38.13-3.29v-13.71c0-.35,0-.71-.02-1.07v-.12c-.06-2.68-.15-6.74,1.75-10.81C6.3,9.86,13.28,5.09,23.78,2.66c4.74-1.1,9.71-1.65,14.77-1.65,4.69,0,9.33.48,13.81,1.42,10.66,2.24,17.63,6.63,21.31,13.42.78,1.43,1.37,2.98,1.78,4.66,4.52-1.06,8.58-1.41,15.14-1.41,15.36,0,32.89,5.46,36.04,20.77.46,2.35.38,4.42.31,5.93v.13c-.02.31-.03.61-.03.9v26.19c0,11.13-8.7,19.29-23.88,22.38-4.32.88-8.79,1.33-13.27,1.33-.61,0-1.23,0-1.84-.03-1.18,3.11-3.1,5.77-5.84,8.06-6.63,5.56-15.01,7.16-20.74,7.87-3.19.4-6.39.6-9.52.6h0Z"/><path class="cls-4" d="m51.82,110.23c-5.12,0-10.04-.56-14.62-1.66-8.01-1.92-13.48-5.21-16.72-10.04-2.71-4.05-2.7-8.17-2.69-11.19v-15.3s-.02,0-.03-.01c-3.54-1.35-6.7-3.48-9.11-6.14-5.26-5.82-4.81-13.95-4.49-19.89.07-1.27.13-2.47.13-3.45v-13.71c0-.41-.01-.83-.02-1.26-.06-2.55-.14-6.04,1.47-9.47,2.86-6.1,9.15-10.31,18.71-12.53,4.52-1.05,9.26-1.58,14.09-1.58,4.48,0,8.91.46,13.19,1.36,9.74,2.05,16.05,5.95,19.29,11.91,1.2,2.21,1.78,4.59,2.03,6.96,5.77-1.66,9.71-2.14,17.53-2.14,14.18,0,30.32,4.83,33.1,18.37.39,1.97.31,3.76.25,5.2-.02.39-.04.78-.04,1.16v26.19c0,9.57-7.83,16.66-21.48,19.44-4.13.84-8.39,1.27-12.67,1.27h0c-1.35,0-2.69-.04-4.02-.13-.74,3.03-2.3,6.1-5.59,8.86-6.03,5.05-13.83,6.53-19.18,7.2-3.06.38-6.14.58-9.14.58h0Z"/><path class="cls-1" d="m116.82,41.88c-2.23-10.84-18.85-12.78-26.24-12.78s-10.71.46-15.64,1.87c-3.23.93-6.51,2.28-9.05,4.54,0-4.42,1.19-10.8-1.03-14.91-2.75-5.08-9.29-7.29-14.57-8.4-7.85-1.65-16.43-1.62-24.26.19-5.14,1.19-11.53,3.53-13.95,8.68-1.12,2.38-.79,5.2-.79,7.76v13.71c0,5.65-1.62,14.03,2.55,18.64,1.74,1.92,4,3.38,6.43,4.31,1.25.48,4.53.86,4.53,2.08v19.18c0,2.79-.14,5.43,1.5,7.88,2.74,4.09,7.97,6.03,12.54,7.13,6.88,1.65,14.26,1.81,21.27.94,5.38-.67,11.3-2.04,15.55-5.61,3.75-3.14,3.75-6.82,3.75-11.35,7.04,1.37,14.62,1.28,21.62-.15,6.34-1.29,15.88-4.69,15.88-12.58v-26.19c0-1.58.24-3.38-.07-4.95h-.02Zm-50.1,4.08c1.45.52,5.47,1.89,5.47,3.97,0,1.91-3.54,3.22-4.89,3.75-4.79,1.87-10.11,2.4-15.21,2.4s-9.98-.5-14.63-2.18c-1.45-.52-5.47-1.89-5.47-3.97,0-1.91,3.54-3.22,4.89-3.75,4.79-1.87,10.11-2.4,15.21-2.4s9.98.5,14.63,2.18Zm-14.63,34.87c6.69,0,14.21-.79,20.1-4.23,0,2.64.37,4.09-2.07,5.62-4.85,3.05-11.36,3.67-16.93,3.78-5.94.11-12.46-.41-17.87-3.08-3.28-1.61-3.33-2.93-3.33-6.32,5.89,3.44,13.42,4.23,20.1,4.23Zm-20.1-14.2c5.89,3.44,13.42,4.23,20.1,4.23s14.21-.79,20.1-4.23c0,3.14.11,4.49-2.88,6.09-5.14,2.74-11.5,3.32-17.22,3.32s-12.08-.57-17.22-3.32c-2.99-1.59-2.88-2.95-2.88-6.09Zm37.75-4.12c-4.86,2.81-11.06,3.44-16.54,3.54-5.94.11-12.46-.41-17.87-3.08-3.28-1.61-3.33-2.92-3.33-6.32,5.89,3.44,13.42,4.23,20.1,4.23s14.21-.79,20.1-4.23c0,2.86.25,4.29-2.46,5.85h0ZM19.17,23.29c2.44-2.63,6.85-3.59,10.22-4.2,4.81-.86,9.75-1.02,14.6-.53,2.85.27,19.68,3.56,12.93,8.3-7.05,4.95-18.47,4.75-26.57,3.45-1.79-.29-14.89-3.03-11.19-7.02h0Zm-.68,8.16c5.87,3.49,13.41,4.29,20.1,4.29s14.24-.81,20.1-4.32c0,1.02.27,2.41,0,3.38,0,1.91-3.43,3.27-4.78,3.81-2.79,1.13-6.74.49-9.76.9-3.6.49-6.81,1.7-10.46,1.38-4.47-.39-9.56-1.22-13.35-3.81-2.23-1.53-1.84-3.14-1.84-5.64h0Zm8.7,28.71c-1.17-.35-2.35-.72-3.53-1.04-1.21-.46-2.95-1.29-4.1-2.3-.54-.54-1.07-1.22-1.07-2.1v-2.96c2.65,1.6,5.69,2.53,8.7,3.18v5.23h0Zm0-10.12c-2.72-.66-6.3-1.63-8.18-3.91-.95-1.15-.52-3.11-.52-4.49,3.29,1.95,7.12,2.93,10.86,3.55-1.3,1.3-2.19,2.98-2.16,4.85Zm43.29,41.93c-3.73,2.57-8.78,3.38-13.18,3.79-6.15.56-12.64.29-18.58-1.53-1.64-.5-6.73-1.98-6.73-4.38v-3.26c5.89,3.44,13.42,4.23,20.1,4.23s14.21-.79,20.1-4.23c0,2.37.4,3.94-1.71,5.39h0Zm3.88-47.2c-1.35-1.2-2.97-2.07-4.62-2.76,3.49-5.2,14.34-5.72,19.99-5.72,4.82.11,9.5.62,14.08,2.12,2.53.83,8.09,3.42,4.49,6.21-4.65,3.6-11.95,4.2-17.58,4.31-4.25.09-8.55-.28-12.67-1.32-2-.51-2.22-1.54-3.68-2.83h0Zm35.33,4.67v3.35c0,1.82-2.94,3.05-4.27,3.62-3.61,1.54-7.6,2.23-11.49,2.54-5.02.4-10.15.15-15.06-.97-1.98-.46-1.87-.35-1.87-2.19v-3.47c10.06,2.47,23.51,2.59,32.7-2.87h-.01Zm-32.7,16.52v-3.48c10.06,2.47,23.51,2.59,32.7-2.86v3.36c0,1.82-2.94,3.05-4.27,3.62-3.61,1.54-7.6,2.23-11.49,2.54-5.02.4-10.15.15-15.06-.97-1.99-.45-1.88-.35-1.88-2.2h0Zm31.43,9.1c-6.19,4.64-15.42,4.63-22.81,4.28-2.49-.16-4.92-.66-7.37-1.13-1.26-.24-1.25-.34-1.25-1.53v-4.01c10.07,2.47,23.51,2.6,32.7-2.86,0,1.98.43,3.85-1.27,5.26h0Z"/></g></svg>