<?xml version="1.0" encoding="UTF-8"?><svg id="Layer_2" xmlns="http://www.w3.org/2000/svg" xmlns:xlink="http://www.w3.org/1999/xlink" viewBox="0 0 107.57 129.21"><defs><style>.cls-1{fill:url(#linear-gradient);}.cls-2{fill:#ffa98d;}.cls-3{fill:#ff6758;}.cls-4{fill:none;stroke:#963b44;stroke-dasharray:0 0 0 5;stroke-linecap:round;stroke-width:2px;}</style><linearGradient id="linear-gradient" x1="51.78" y1="119.54" x2="51.78" y2="16.34" gradientTransform="translate(0 130.52) scale(1 -1)" gradientUnits="userSpaceOnUse"><stop offset=".53" stop-color="#321815"/><stop offset="1" stop-color="#4b2524"/></linearGradient></defs><g id="Layer_3"><path class="cls-3" d="m53.79,129.19c-24.2,0-38.09-4.25-46.46-14.22C-2.98,102.68-.2,86.98,2.48,71.8l.2-1.11c2.74-15.52,10.05-28.7,20.69-37.34l-3.69-11.8c-1.83-5.83-.31-12.17,3.96-16.54,3.13-3.19,7.46-5.01,11.89-5.01,1.54,0,3.08.22,4.56.64l5.04,1.44,2.23-.89c1.98-.79,4.05-1.19,6.16-1.19s4.19.4,6.16,1.19l2.23.89,5.04-1.44c1.49-.42,3.02-.64,4.56-.64,4.44,0,8.77,1.82,11.88,5,4.27,4.39,5.79,10.73,3.97,16.55l-3.58,11.46c10.87,8.63,18.33,21.93,21.12,37.71l.19,1.07c2.69,15.2,5.46,30.91-4.84,43.2-8.36,9.97-22.26,14.22-46.46,14.22h0v-.02Z"/><path class="cls-2" d="m51.79,124.19c-23.22,0-36.43-3.93-44.16-13.15C-1.78,99.82.76,85.49,3.44,70.32l.2-1.1c2.76-15.66,10.26-28.63,21.22-36.77l-4.31-13.79c-1.5-4.77-.25-9.97,3.24-13.55,2.56-2.61,6.11-4.1,9.74-4.1,1.26,0,2.52.18,3.74.52l6.03,1.72,3.18-1.27c1.62-.65,3.32-.97,5.05-.97s3.44.33,5.05.97l3.19,1.27,6.03-1.72c1.22-.35,2.48-.52,3.74-.52,3.64,0,7.19,1.49,9.73,4.1,3.5,3.59,4.74,8.79,3.25,13.56l-4.21,13.47c11.19,8.11,18.84,21.2,21.65,37.11l.19,1.07c2.68,15.19,5.22,29.53-4.19,40.74-7.73,9.22-20.94,13.15-44.16,13.15h0v-.02Z"/><path class="cls-4" d="m51.79,121.19c-22.24,0-34.76-3.61-41.86-12.08-8.51-10.14-6.2-23.18-3.54-38.27l.2-1.1c2.78-15.76,10.59-28.6,21.78-36.11l-4.96-15.87c-1.16-3.72-.2-7.77,2.53-10.56,2-2.04,4.76-3.2,7.59-3.2.98,0,1.96.14,2.91.41l7.02,2,4.14-1.65c1.26-.5,2.58-.76,3.94-.76s2.68.25,3.93.76l4.14,1.65,7.01-2c.95-.27,1.93-.41,2.91-.41,2.84,0,5.6,1.16,7.59,3.2,2.73,2.8,3.69,6.85,2.53,10.57l-4.87,15.58c11.43,7.46,19.4,20.4,22.22,36.42l.19,1.08c2.67,15.11,4.98,28.14-3.53,38.29-7.1,8.47-19.62,12.08-41.87,12.08h0v-.03Z"/><path class="cls-1" d="m90.3,72.05l-.19-1.09c-2.85-16.18-11.61-28.71-23.71-34.29l6.57-21.01c.39-1.26.06-2.64-.86-3.59-.93-.95-2.29-1.31-3.57-.95,0,0-7.45,2.13-9.32,2.66-1.64-.66-6.36-2.54-6.36-2.54-.86-.34-1.81-.34-2.67,0,0,0-4.72,1.89-6.36,2.54-1.86-.53-9.32-2.66-9.32-2.66-1.27-.36-2.64,0-3.57.95-.92.95-1.25,2.32-.86,3.59l6.63,21.22c-11.84,5.68-20.43,18.15-23.24,34.07l-.19,1.09c-2.46,13.92-4.41,24.92,2,32.56,5.63,6.71,16.54,9.58,36.5,9.58s30.87-2.87,36.5-9.58c6.41-7.64,4.47-18.64,2.01-32.56h0ZM43.04,21.05c.77.22,1.59.18,2.33-.12,0,0,4.36-1.74,6.16-2.47,1.8.72,6.16,2.47,6.16,2.47.74.3,1.56.34,2.33.12,0,0,2.14-.61,4.08-1.17-1.78,5.71-4.4,14.08-5.24,16.76-2.3-.48-4.66-.75-7.07-.75-2.59,0-5.11.31-7.56.86-.79-2.54-3.46-11.07-5.27-16.87,1.94.56,4.08,1.17,4.08,1.17Zm39.74,78.93c-4,4.78-13.85,7-30.98,7s-26.98-2.22-30.98-7c-4.25-5.07-2.65-14.14-.43-26.68l.19-1.09c2.59-14.7,10.7-25.87,21.67-29.87.07-.02,4.51-1.63,9.54-1.66s8.93,1.44,9,1.46c11.27,3.83,19.58,15.07,22.22,30.07l.19,1.09c2.22,12.55,3.82,21.61-.43,26.68h0Zm-21.3-27.44c-1.14-.5-3.21-1.2-6.22-2.07-.74-.22-1.35-.84-1.35-1.62v-7.56c0-.71.72-1.17,1.4-.95,1.31.42,2.36,1.26,3.15,2.53.69,1.12,2,1.72,3.29,1.45l1.03-.22c1.35-.29,2.02-1.79,1.37-3-1.78-3.3-4.83-5.36-9.15-6.14-.65-.12-1.09-.73-1.09-1.39v-.97c0-1.07-.87-1.93-1.93-1.93s-1.93.86-1.93,1.93v.97c0,.78-.71,1.31-1.48,1.44-7.14,1.25-10.71,4.9-10.71,10.93,0,2.48.76,4.62,2.29,6.41,1.44,1.68,4.42,3.08,8.96,4.21.62.16.93.81.93,1.45v8.88c0,.62-.45,1.2-1.06,1.09-2.38-.43-4.15-1.66-5.34-3.7-.76-1.3-2.02-2.46-3.47-2.12l-1.4.32c-1.23.29-2.11,1.51-1.58,2.65,2.12,4.61,5.96,7.31,11.54,8.09.71.1,1.31.65,1.31,1.37v2.14c0,1.07.87,1.93,1.93,1.93s1.93-.87,1.93-1.93v-2.14c0-.78.73-1.29,1.5-1.41,3.38-.5,6.02-1.68,7.9-3.52,2.16-2.1,3.24-4.74,3.24-7.91,0-2.24-.52-4.19-1.56-5.85s-2.21-2.78-3.52-3.36h.02Zm-11.44-4.07c0,.7-.7,1.14-1.37.98-2.99-.69-4.48-2.2-4.48-4.55,0-1.58.56-2.78,1.68-3.6.84-.61,1.83-1,2.97-1.16.66-.09,1.2.47,1.2,1.14v7.18h0Zm8.38,18.06c-.91.77-1.99,1.27-3.22,1.47-.68.11-1.29-.43-1.29-1.12v-8.53c0-.72.8-1.08,1.49-.88,3.23.91,4.85,2.58,4.85,5.02,0,1.66-.61,3.01-1.82,4.04h-.01Z"/></g></svg>