<?xml version="1.0" encoding="UTF-8"?><svg id="Layer_2" xmlns="http://www.w3.org/2000/svg" xmlns:xlink="http://www.w3.org/1999/xlink" viewBox="0 0 129.2 117.2"><defs><style>.cls-1{fill:url(#linear-gradient);}.cls-2{fill:#ffa98d;}.cls-3{fill:#ff6758;}.cls-4{fill:none;stroke:#963b44;stroke-dasharray:0 0 0 5;stroke-linecap:round;stroke-width:2px;}</style><linearGradient id="linear-gradient" x1="62.6" y1="107.54" x2="62.6" y2="16.34" gradientTransform="translate(0 118.54) scale(1 -1)" gradientUnits="userSpaceOnUse"><stop offset=".53" stop-color="#321815"/><stop offset="1" stop-color="#4b2524"/></linearGradient></defs><g id="Layer_3"><rect class="cls-3" width="129.2" height="117.2" rx="16.6" ry="16.6"/><rect class="cls-2" x="1" y="1" width="123.2" height="111.2" rx="13.6" ry="13.6"/><rect class="cls-4" x="4" y="4" width="117.2" height="105.2" rx="10.6" ry="10.6"/><path class="cls-1" d="m110.6,11H14.6c-1.99,0-3.6,1.61-3.6,3.6v84c0,1.99,1.61,3.6,3.6,3.6h96c1.99,0,3.6-1.61,3.6-3.6V14.6c0-1.99-1.61-3.6-3.6-3.6h0Zm-3.6,84H18.2V18.2h88.8v76.8Zm-78.9-28.5h40.5c1.32,0,2.4-1.08,2.4-2.4V28.1c0-1.32-1.08-2.4-2.4-2.4H28.1c-1.32,0-2.4,1.08-2.4,2.4v36c0,1.32,1.07,2.4,2.4,2.4Zm2.4-36h35.7v31.2H30.5v-31.2Zm47.1,6h22.5c1.32,0,2.4-1.08,2.4-2.4s-1.08-2.4-2.4-2.4h-22.5c-1.32,0-2.4,1.08-2.4,2.4s1.08,2.4,2.4,2.4Zm18.6,12h4.8v-4.8h-4.8v4.8Zm-4.2-4.8h-4.8v4.8h4.8v-4.8Zm-13.8,4.8h4.8v-4.8h-4.8v4.8Zm18,9h4.8v-4.8h-4.8v4.8Zm-9,0h4.8v-4.8h-4.8v4.8Zm-9,0h4.8v-4.8h-4.8v4.8Zm18,9h4.8v-4.8h-4.8v4.8Zm-10.2,9h15v-4.8h-15v4.8Zm1.2-9h4.8v-4.8h-4.8v4.8Zm-9,0h4.8v-4.8h-4.8v4.8Zm-50.1,21h40.5c1.32,0,2.4-1.08,2.4-2.4v-9c0-1.32-1.08-2.4-2.4-2.4H28.1c-1.32,0-2.4,1.08-2.4,2.4v9c0,1.32,1.07,2.4,2.4,2.4Zm2.4-9h35.7v4.2H30.5v-4.2h0Z"/></g></svg>