<?xml version="1.0" encoding="UTF-8"?><svg id="Layer_2" xmlns="http://www.w3.org/2000/svg" xmlns:xlink="http://www.w3.org/1999/xlink" viewBox="0 0 124.7 106.7"><defs><style>.cls-1{fill:url(#linear-gradient);}.cls-2{fill:#ffa98d;}.cls-3{fill:#ff6758;}</style><linearGradient id="linear-gradient" x1="60.35" y1="-242.52" x2="60.35" y2="-323.22" gradientTransform="translate(0 -231.52) scale(1 -1)" gradientUnits="userSpaceOnUse"><stop offset=".53" stop-color="#321815"/><stop offset="1" stop-color="#4b2524"/></linearGradient></defs><g id="Layer_3"><path class="cls-3" d="m85.6,106.7c-3.4,0-6.72-1.06-9.48-3h-27.54c-2.76,1.94-6.08,3-9.48,3h-13.5c-3.4,0-6.73-1.06-9.49-3.01-8.93-.26-16.11-7.6-16.11-16.59V16.6C0,7.45,7.45,0,16.6,0h91.5c9.15,0,16.6,7.45,16.6,16.6v70.5c0,8.99-7.18,16.33-16.11,16.59-2.76,1.95-6.09,3.01-9.49,3.01h-13.5Z"/><path class="cls-2" d="m83.6,101.7c-3.12,0-6.08-1.06-8.48-3h-29.55c-2.4,1.94-5.36,3-8.48,3h-13.5c-3.12,0-6.08-1.06-8.48-3h-.52c-7.5,0-13.6-6.1-13.6-13.6V14.6C.99,7.1,7.09,1,14.59,1h91.5c7.5,0,13.6,6.1,13.6,13.6v70.5c0,7.5-6.1,13.6-13.6,13.6h-.52c-2.4,1.94-5.36,3-8.48,3h-13.5.01Z"/><path class="cls-1" d="m93.5,34.7h-4.8v4.8h4.8v-4.8Zm-9,0h-4.8v4.8h4.8v-4.8Zm-9,0h-4.8v4.8h4.8v-4.8Zm18,9h-4.8v4.8h4.8v-4.8Zm-9,0h-4.8v4.8h4.8v-4.8Zm-9,0h-4.8v4.8h4.8v-4.8Zm18,9h-4.8v4.8h4.8v-4.8Zm0,9h-15v4.8h15v-4.8Zm-9-9h-4.8v4.8h4.8v-4.8Zm-9,0h-4.8v4.8h4.8v-4.8Zm-39.6,11.47c6.23,3.59,13.78,2.89,19.19-1.19l.67.67c.93.94,2.46.94,3.39,0,.94-.94.94-2.46,0-3.39l-.68-.68c.42-.57.83-1.15,1.2-1.78,4.8-8.31,1.94-18.97-6.37-23.77s-18.97-1.94-23.77,6.37-1.94,18.97,6.37,23.77Zm-2.21-21.37c3.48-6.02,11.2-8.08,17.21-4.61,4.04,2.33,6.3,6.57,6.3,10.93,0,2.13-.54,4.3-1.68,6.28-.15.26-.35.47-.51.71l-.13-.13c-.93-.94-2.46-.94-3.39,0-.94.94-.94,2.46,0,3.39l.14.14c-3.87,2.6-9.01,2.99-13.31.5-6.02-3.47-8.09-11.19-4.61-17.21h-.02Zm6.71,13.57c4.01,2.31,9.16.94,11.48-3.07h0c2.31-4.01.93-9.16-3.08-11.47s-9.16-.94-11.48,3.07c-2.31,4.01-.94,9.16,3.07,11.48h0Zm1.08-9.07c.99-1.72,3.2-2.31,4.92-1.32,1.15.67,1.8,1.88,1.8,3.12,0,.61-.16,1.23-.48,1.79-.99,1.72-3.2,2.31-4.92,1.32s-2.31-3.2-1.32-4.92h0ZM106.1,11H14.6c-1.99,0-3.6,1.61-3.6,3.6v70.5c0,1.99,1.61,3.6,3.6,3.6h5.52c.3,1.69,1.7,3,3.48,3h13.5c1.78,0,3.18-1.31,3.48-3h39.54c.3,1.69,1.7,3,3.48,3h13.5c1.78,0,3.18-1.31,3.48-3h5.52c1.99,0,3.6-1.61,3.6-3.6V14.6c0-1.99-1.61-3.6-3.6-3.6Zm-3.6,70.5H18.2V18.2h84.3v63.3Z"/></g></svg>